ISO-10303-21;
HEADER;
FILE_DESCRIPTION (( 'STEP AP214' ),
    '1' );
FILE_NAME ('bearing 17 mm cuscinetto flangiato piatto.STEP',
    '2026-01-20T09:33:01',
    ( '' ),
    ( '' ),
    'SwSTEP 2.0',
    'SolidWorks 2017',
    '' );
FILE_SCHEMA (( 'AUTOMOTIVE_DESIGN' ));
ENDSEC;

DATA;
#1 = ORIENTED_EDGE ( 'NONE', *, *, #912, .F. ) ;
#2 = CYLINDRICAL_SURFACE ( 'NONE', #621, 8.500000000000000000 ) ;
#3 = ORIENTED_EDGE ( 'NONE', *, *, #82, .T. ) ;
#4 = ORIENTED_EDGE ( 'NONE', *, *, #24, .F. ) ;
#5 = CARTESIAN_POINT ( 'NONE',  ( 8.216586365882180900, 30.50000000000000700, 7.000000000000000000 ) ) ;
#6 = EDGE_CURVE ( 'NONE', #368, #312, #306, .T. ) ;
#7 = CARTESIAN_POINT ( 'NONE',  ( 0.0000000000000000000, 0.0000000000000000000, 7.000000000000000000 ) ) ;
#8 = FACE_OUTER_BOUND ( 'NONE', #775, .T. ) ;
#9 = EDGE_CURVE ( 'NONE', #951, #821, #250, .T. ) ;
#10 = LINE ( 'NONE', #931, #23 ) ;
#11 = AXIS2_PLACEMENT_3D ( 'NONE', #967, #192, #963 ) ;
#12 = ORIENTED_EDGE ( 'NONE', *, *, #1003, .T. ) ;
#13 = ORIENTED_EDGE ( 'NONE', *, *, #337, .T. ) ;
#14 = VECTOR ( 'NONE', #898, 1000.000000000000000 ) ;
#15 = ORIENTED_EDGE ( 'NONE', *, *, #843, .T. ) ;
#16 = ORIENTED_EDGE ( 'NONE', *, *, #862, .T. ) ;
#17 = ORIENTED_EDGE ( 'NONE', *, *, #82, .F. ) ;
#18 = ADVANCED_FACE ( 'NONE', ( #237 ), #402, .F. ) ;
#19 = AXIS2_PLACEMENT_3D ( 'NONE', #224, #313, #389 ) ;
#20 = VECTOR ( 'NONE', #906, 1000.000000000000000 ) ;
#21 = ADVANCED_FACE ( 'NONE', ( #225 ), #325, .F. ) ;
#22 = CIRCLE ( 'NONE', #240, 3.499999999999999600 ) ;
#23 = VECTOR ( 'NONE', #628, 1000.000000000000000 ) ;
#24 = EDGE_CURVE ( 'NONE', #358, #279, #10, .T. ) ;
#25 = ORIENTED_EDGE ( 'NONE', *, *, #583, .T. ) ;
#26 = ADVANCED_FACE ( 'NONE', ( #161 ), #940, .T. ) ;
#27 = VECTOR ( 'NONE', #983, 1000.000000000000100 ) ;
#28 = DIRECTION ( 'NONE',  ( 1.000000000000000000, 0.0000000000000000000, 0.0000000000000000000 ) ) ;
#29 = CARTESIAN_POINT ( 'NONE',  ( 11.49999999999998800, 19.91858428704209100, 7.000000000000000000 ) ) ;
#30 = EDGE_CURVE ( 'NONE', #870, #952, #989, .T. ) ;
#31 = CARTESIAN_POINT ( 'NONE',  ( -8.216586365882188000, 30.50000000000000400, 0.0000000000000000000 ) ) ;
#32 = DIRECTION ( 'NONE',  ( 0.0000000000000000000, 0.0000000000000000000, 1.000000000000000000 ) ) ;
#33 = AXIS2_PLACEMENT_3D ( 'NONE', #622, #693, #65 ) ;
#34 = CIRCLE ( 'NONE', #450, 3.499999999999999600 ) ;
#35 = DIRECTION ( 'NONE',  ( 1.267541241555467500E-016, -1.000000000000000000, 0.0000000000000000000 ) ) ;
#36 = PLANE ( 'NONE',  #174 ) ;
#37 = FACE_OUTER_BOUND ( 'NONE', #440, .T. ) ;
#38 = EDGE_CURVE ( 'NONE', #557, #184, #501, .T. ) ;
#39 = ORIENTED_EDGE ( 'NONE', *, *, #792, .F. ) ;
#40 = ORIENTED_EDGE ( 'NONE', *, *, #612, .F. ) ;
#41 = CARTESIAN_POINT ( 'NONE',  ( -19.35829318294109000, -19.35829318294108200, 7.000000000000000000 ) ) ;
#42 = DIRECTION ( 'NONE',  ( -0.8660254037844383700, 0.5000000000000004400, 0.0000000000000000000 ) ) ;
#43 = DIRECTION ( 'NONE',  ( 0.0000000000000000000, 0.0000000000000000000, 1.000000000000000000 ) ) ;
#44 = CARTESIAN_POINT ( 'NONE',  ( -8.216586365882186300, 21.81426403256090700, 7.000000000000000000 ) ) ;
#45 = CIRCLE ( 'NONE', #326, 11.00000000000000000 ) ;
#46 = VECTOR ( 'NONE', #113, 1000.000000000000100 ) ;
#47 = DIRECTION ( 'NONE',  ( -0.0000000000000000000, -0.0000000000000000000, -1.000000000000000000 ) ) ;
#48 = ORIENTED_EDGE ( 'NONE', *, *, #939, .T. ) ;
#49 = CARTESIAN_POINT ( 'NONE',  ( 11.49999999999998200, -19.91858428704209800, 0.0000000000000000000 ) ) ;
#50 = CARTESIAN_POINT ( 'NONE',  ( 8.216586365882186300, -21.81426403256089600, 0.0000000000000000000 ) ) ;
#51 = AXIS2_PLACEMENT_3D ( 'NONE', #654, #442, #591 ) ;
#52 = CARTESIAN_POINT ( 'NONE',  ( -3.216586365882179200, -35.49999999999999300, 0.0000000000000000000 ) ) ;
#53 = DIRECTION ( 'NONE',  ( 0.0000000000000000000, 0.0000000000000000000, 1.000000000000000000 ) ) ;
#54 = FACE_OUTER_BOUND ( 'NONE', #766, .T. ) ;
#55 = DIRECTION ( 'NONE',  ( -1.000000000000000000, 0.0000000000000000000, 0.0000000000000000000 ) ) ;
#56 = EDGE_CURVE ( 'NONE', #358, #523, #637, .T. ) ;
#57 = CARTESIAN_POINT ( 'NONE',  ( 8.216586365882186300, -21.81426403256089600, 7.000000000000000000 ) ) ;
#58 = FACE_BOUND ( 'NONE', #823, .T. ) ;
#59 = ORIENTED_EDGE ( 'NONE', *, *, #570, .T. ) ;
#60 = CARTESIAN_POINT ( 'NONE',  ( 3.216586365882188000, -35.49999999999999300, 0.0000000000000000000 ) ) ;
#61 = VERTEX_POINT ( 'NONE', #566 ) ;
#62 = AXIS2_PLACEMENT_3D ( 'NONE', #218, #43, #604 ) ;
#63 = ORIENTED_EDGE ( 'NONE', *, *, #455, .F. ) ;
#64 = DIRECTION ( 'NONE',  ( -1.000000000000000000, -0.0000000000000000000, -0.0000000000000000000 ) ) ;
#65 = DIRECTION ( 'NONE',  ( 0.8660254037844390400, 0.4999999999999991700, 0.0000000000000000000 ) ) ;
#66 = DIRECTION ( 'NONE',  ( -1.000000000000000000, 0.0000000000000000000, 0.0000000000000000000 ) ) ;
#67 = FACE_OUTER_BOUND ( 'NONE', #648, .T. ) ;
#68 =( GEOMETRIC_REPRESENTATION_CONTEXT ( 3 ) GLOBAL_UNCERTAINTY_ASSIGNED_CONTEXT ( ( #102 ) ) GLOBAL_UNIT_ASSIGNED_CONTEXT ( ( #460, #999, #674 ) ) REPRESENTATION_CONTEXT ( 'NONE', 'WORKASPACE' ) );
#69 = CARTESIAN_POINT ( 'NONE',  ( -8.216586365882186300, 21.81426403256090700, 0.0000000000000000000 ) ) ;
#70 = VECTOR ( 'NONE', #236, 1000.000000000000000 ) ;
#71 = CARTESIAN_POINT ( 'NONE',  ( -8.216586365882179200, -30.49999999999998900, 7.000000000000000000 ) ) ;
#72 = CARTESIAN_POINT ( 'NONE',  ( 0.0000000000000000000, 28.00000000000000400, 7.000000000000000000 ) ) ;
#73 = VERTEX_POINT ( 'NONE', #412 ) ;
#74 = LINE ( 'NONE', #606, #718 ) ;
#75 = PLANE ( 'NONE',  #677 ) ;
#76 = EDGE_CURVE ( 'NONE', #569, #1008, #818, .T. ) ;
#77 = EDGE_LOOP ( 'NONE', ( #492, #917, #597, #264 ) ) ;
#78 = ORIENTED_EDGE ( 'NONE', *, *, #534, .F. ) ;
#79 = CARTESIAN_POINT ( 'NONE',  ( 8.216586365882179200, 35.50000000000000700, 7.000000000000000000 ) ) ;
#80 = DIRECTION ( 'NONE',  ( -0.7071067811865474600, -0.7071067811865476800, -0.0000000000000000000 ) ) ;
#81 = FACE_OUTER_BOUND ( 'NONE', #863, .T. ) ;
#82 = EDGE_CURVE ( 'NONE', #848, #512, #482, .T. ) ;
#83 = CARTESIAN_POINT ( 'NONE',  ( 0.0000000000000000000, 0.0000000000000000000, 7.000000000000000000 ) ) ;
#84 = FACE_OUTER_BOUND ( 'NONE', #706, .T. ) ;
#85 = ADVANCED_FACE ( 'NONE', ( #149, #610, #87, #405 ), #664, .T. ) ;
#86 = AXIS2_PLACEMENT_3D ( 'NONE', #308, #319, #470 ) ;
#87 = FACE_BOUND ( 'NONE', #599, .T. ) ;
#88 = DIRECTION ( 'NONE',  ( -0.0000000000000000000, -0.0000000000000000000, -1.000000000000000000 ) ) ;
#89 = CARTESIAN_POINT ( 'NONE',  ( 11.49999999999998800, 19.91858428704209100, 7.000000000000000000 ) ) ;
#90 = ORIENTED_EDGE ( 'NONE', *, *, #968, .F. ) ;
#91 = ADVANCED_FACE ( 'NONE', ( #37 ), #392, .T. ) ;
#92 = EDGE_LOOP ( 'NONE', ( #384, #335, #98, #465 ) ) ;
#93 = AXIS2_PLACEMENT_3D ( 'NONE', #7, #168, #868 ) ;
#94 = LINE ( 'NONE', #454, #118 ) ;
#95 = LINE ( 'NONE', #861, #489 ) ;
#96 = ORIENTED_EDGE ( 'NONE', *, *, #878, .F. ) ;
#97 = ORIENTED_EDGE ( 'NONE', *, *, #56, .T. ) ;
#98 = ORIENTED_EDGE ( 'NONE', *, *, #472, .T. ) ;
#99 = CARTESIAN_POINT ( 'NONE',  ( 0.0000000000000000000, 0.0000000000000000000, -12.00000000000000000 ) ) ;
#100 = EDGE_LOOP ( 'NONE', ( #876, #275, #485, #903 ) ) ;
#101 = AXIS2_PLACEMENT_3D ( 'NONE', #232, #538, #156 ) ;
#102 = UNCERTAINTY_MEASURE_WITH_UNIT (LENGTH_MEASURE( 1.000000000000000100E-005 ), #460, 'distance_accuracy_value', 'NONE');
#103 = VECTOR ( 'NONE', #542, 1000.000000000000000 ) ;
#104 = LINE ( 'NONE', #522, #134 ) ;
#105 = VERTEX_POINT ( 'NONE', #60 ) ;
#106 = EDGE_CURVE ( 'NONE', #545, #231, #960, .T. ) ;
#107 = DIRECTION ( 'NONE',  ( 1.267541241555467700E-016, -1.000000000000000000, 0.0000000000000000000 ) ) ;
#108 = ORIENTED_EDGE ( 'NONE', *, *, #633, .T. ) ;
#109 = CARTESIAN_POINT ( 'NONE',  ( -8.216586365882188000, 30.50000000000000400, 7.000000000000000000 ) ) ;
#110 = DIRECTION ( 'NONE',  ( 0.0000000000000000000, 0.0000000000000000000, -1.000000000000000000 ) ) ;
#111 = ORIENTED_EDGE ( 'NONE', *, *, #792, .T. ) ;
#112 = VERTEX_POINT ( 'NONE', #1000 ) ;
#113 = DIRECTION ( 'NONE',  ( 0.7071067811865474600, 0.7071067811865474600, -0.0000000000000000000 ) ) ;
#114 = VERTEX_POINT ( 'NONE', #626 ) ;
#115 = CARTESIAN_POINT ( 'NONE',  ( 11.49999999999998800, 19.91858428704209100, 7.000000000000000000 ) ) ;
#116 = FACE_OUTER_BOUND ( 'NONE', #692, .T. ) ;
#117 = DIRECTION ( 'NONE',  ( -1.267541241555467500E-016, 1.000000000000000000, 0.0000000000000000000 ) ) ;
#118 = VECTOR ( 'NONE', #524, 1000.000000000000100 ) ;
#119 = DIRECTION ( 'NONE',  ( 0.0000000000000000000, 0.0000000000000000000, 1.000000000000000000 ) ) ;
#120 = CARTESIAN_POINT ( 'NONE',  ( 20.00000000000000000, 0.0000000000000000000, 0.0000000000000000000 ) ) ;
#121 = LINE ( 'NONE', #805, #247 ) ;
#122 = CARTESIAN_POINT ( 'NONE',  ( -8.216586365882188000, 30.50000000000000400, 0.0000000000000000000 ) ) ;
#123 = VERTEX_POINT ( 'NONE', #916 ) ;
#124 = PRESENTATION_LAYER_ASSIGNMENT (  '', '', ( #785 ) ) ;
#125 = DIRECTION ( 'NONE',  ( -0.0000000000000000000, -0.0000000000000000000, -1.000000000000000000 ) ) ;
#126 = EDGE_LOOP ( 'NONE', ( #944, #379, #549, #136, #977, #790, #965, #819, #806, #647, #262, #920, #1, #788, #764, #740, #690 ) ) ;
#127 = ORIENTED_EDGE ( 'NONE', *, *, #130, .T. ) ;
#128 = DIRECTION ( 'NONE',  ( 0.0000000000000000000, 0.0000000000000000000, -1.000000000000000000 ) ) ;
#129 = APPLICATION_PROTOCOL_DEFINITION ( 'draft international standard', 'automotive_design', 1998, #303 ) ;
#130 = EDGE_CURVE ( 'NONE', #495, #826, #530, .T. ) ;
#131 = CARTESIAN_POINT ( 'NONE',  ( 8.216586365882186300, -21.81426403256089600, 7.000000000000000000 ) ) ;
#132 = CARTESIAN_POINT ( 'NONE',  ( 0.0000000000000000000, -27.99999999999999600, 7.000000000000000000 ) ) ;
#133 = VECTOR ( 'NONE', #521, 1000.000000000000000 ) ;
#134 = VECTOR ( 'NONE', #683, 1000.000000000000000 ) ;
#135 = DIRECTION ( 'NONE',  ( -0.0000000000000000000, -0.0000000000000000000, -1.000000000000000000 ) ) ;
#136 = ORIENTED_EDGE ( 'NONE', *, *, #9, .F. ) ;
#137 = EDGE_CURVE ( 'NONE', #826, #142, #272, .T. ) ;
#138 = AXIS2_PLACEMENT_3D ( 'NONE', #324, #160, #1017 ) ;
#139 = ORIENTED_EDGE ( 'NONE', *, *, #426, .T. ) ;
#140 = CARTESIAN_POINT ( 'NONE',  ( -8.216586365882186300, 21.81426403256090700, 7.000000000000000000 ) ) ;
#141 = ORIENTED_EDGE ( 'NONE', *, *, #620, .T. ) ;
#142 = VERTEX_POINT ( 'NONE', #624 ) ;
#143 = DIRECTION ( 'NONE',  ( 0.0000000000000000000, 0.0000000000000000000, -1.000000000000000000 ) ) ;
#144 = CIRCLE ( 'NONE', #19, 20.00000000000000000 ) ;
#145 = AXIS2_PLACEMENT_3D ( 'NONE', #966, #110, #511 ) ;
#146 = PLANE ( 'NONE',  #101 ) ;
#147 = FACE_OUTER_BOUND ( 'NONE', #186, .T. ) ;
#148 = VECTOR ( 'NONE', #400, 1000.000000000000000 ) ;
#149 = FACE_BOUND ( 'NONE', #323, .T. ) ;
#150 = CARTESIAN_POINT ( 'NONE',  ( 0.0000000000000000000, 0.0000000000000000000, -5.000000000000000000 ) ) ;
#151 = EDGE_CURVE ( 'NONE', #510, #495, #772, .T. ) ;
#152 = ORIENTED_EDGE ( 'NONE', *, *, #934, .F. ) ;
#153 = VERTEX_POINT ( 'NONE', #458 ) ;
#154 = VERTEX_POINT ( 'NONE', #230 ) ;
#155 = CARTESIAN_POINT ( 'NONE',  ( -3.499999999999999600, 28.00000000000000400, 7.000000000000000000 ) ) ;
#156 = DIRECTION ( 'NONE',  ( 0.0000000000000000000, 0.0000000000000000000, -1.000000000000000000 ) ) ;
#157 = VECTOR ( 'NONE', #978, 1000.000000000000000 ) ;
#158 = DIRECTION ( 'NONE',  ( -1.000000000000000000, -3.802623724666399700E-016, 0.0000000000000000000 ) ) ;
#159 = LINE ( 'NONE', #31, #46 ) ;
#160 = DIRECTION ( 'NONE',  ( 0.0000000000000000000, 0.0000000000000000000, 1.000000000000000000 ) ) ;
#161 = FACE_OUTER_BOUND ( 'NONE', #382, .T. ) ;
#162 = DIRECTION ( 'NONE',  ( 0.8660254037844383700, -0.5000000000000004400, 0.0000000000000000000 ) ) ;
#163 = LINE ( 'NONE', #299, #183 ) ;
#164 = EDGE_CURVE ( 'NONE', #307, #267, #949, .T. ) ;
#165 = EDGE_LOOP ( 'NONE', ( #979, #556, #535, #253 ) ) ;
#166 = CARTESIAN_POINT ( 'NONE',  ( 0.0000000000000000000, -27.99999999999999600, 7.000000000000000000 ) ) ;
#167 = CARTESIAN_POINT ( 'NONE',  ( -8.216586365882180900, -21.81426403256089600, 0.0000000000000000000 ) ) ;
#168 = DIRECTION ( 'NONE',  ( 0.0000000000000000000, 0.0000000000000000000, 1.000000000000000000 ) ) ;
#169 = VECTOR ( 'NONE', #1004, 1000.000000000000000 ) ;
#170 = FACE_BOUND ( 'NONE', #669, .T. ) ;
#171 = ADVANCED_FACE ( 'NONE', ( #737, #58, #170, #927 ), #317, .F. ) ;
#172 = EDGE_LOOP ( 'NONE', ( #794, #295, #742, #90 ) ) ;
#173 = ORIENTED_EDGE ( 'NONE', *, *, #270, .F. ) ;
#174 = AXIS2_PLACEMENT_3D ( 'NONE', #109, #283, #441 ) ;
#175 = ADVANCED_FACE ( 'NONE', ( #320 ), #1013, .F. ) ;
#176 = VECTOR ( 'NONE', #839, 1000.000000000000000 ) ;
#177 = VECTOR ( 'NONE', #271, 1000.000000000000000 ) ;
#178 = EDGE_CURVE ( 'NONE', #307, #293, #725, .T. ) ;
#179 = VERTEX_POINT ( 'NONE', #155 ) ;
#180 = CARTESIAN_POINT ( 'NONE',  ( 0.0000000000000000000, 0.0000000000000000000, -12.00000000000000000 ) ) ;
#181 = DIRECTION ( 'NONE',  ( -0.8660254037844390400, 0.4999999999999991700, 0.0000000000000000000 ) ) ;
#182 = ADVANCED_FACE ( 'NONE', ( #897 ), #75, .F. ) ;
#183 = VECTOR ( 'NONE', #210, 1000.000000000000000 ) ;
#184 = VERTEX_POINT ( 'NONE', #1018 ) ;
#185 = EDGE_CURVE ( 'NONE', #991, #783, #95, .T. ) ;
#186 = EDGE_LOOP ( 'NONE', ( #40, #642, #453, #3 ) ) ;
#187 = CLOSED_SHELL ( 'NONE', ( #26, #947, #731, #605, #961, #249, #171, #85, #879, #865, #508, #182, #21, #410, #348, #727, #494, #333, #18, #175, #651, #422, #415, #258, #488, #715, #91, #643, #657, #339, #803 ) ) ;
#188 = CARTESIAN_POINT ( 'NONE',  ( -3.216586365882179200, -35.49999999999999300, 7.000000000000000000 ) ) ;
#189 = CARTESIAN_POINT ( 'NONE',  ( -3.216586365882179200, -35.49999999999999300, 0.0000000000000000000 ) ) ;
#190 = AXIS2_PLACEMENT_3D ( 'NONE', #294, #834, #373 ) ;
#191 = CARTESIAN_POINT ( 'NONE',  ( 11.49999999999998800, 19.91858428704209100, 0.0000000000000000000 ) ) ;
#192 = DIRECTION ( 'NONE',  ( -0.0000000000000000000, -0.0000000000000000000, -1.000000000000000000 ) ) ;
#193 = DIRECTION ( 'NONE',  ( 0.7071067811865474600, -0.7071067811865476800, -0.0000000000000000000 ) ) ;
#194 = DIRECTION ( 'NONE',  ( 0.0000000000000000000, 0.0000000000000000000, 1.000000000000000000 ) ) ;
#195 = VECTOR ( 'NONE', #659, 1000.000000000000000 ) ;
#196 = EDGE_CURVE ( 'NONE', #821, #702, #287, .T. ) ;
#197 = CARTESIAN_POINT ( 'NONE',  ( -3.499999999999999600, 28.00000000000000400, 0.0000000000000000000 ) ) ;
#198 = CARTESIAN_POINT ( 'NONE',  ( -11.49999999999999800, 19.91858428704209400, 7.000000000000000000 ) ) ;
#199 = ORIENTED_EDGE ( 'NONE', *, *, #391, .T. ) ;
#200 = ORIENTED_EDGE ( 'NONE', *, *, #278, .T. ) ;
#201 = ORIENTED_EDGE ( 'NONE', *, *, #553, .T. ) ;
#202 = CARTESIAN_POINT ( 'NONE',  ( 8.216586365882186300, -30.49999999999998900, 0.0000000000000000000 ) ) ;
#203 = ORIENTED_EDGE ( 'NONE', *, *, #443, .T. ) ;
#204 = CARTESIAN_POINT ( 'NONE',  ( -8.216586365882180900, -21.81426403256089600, 7.000000000000000000 ) ) ;
#205 = ORIENTED_EDGE ( 'NONE', *, *, #30, .T. ) ;
#206 = EDGE_CURVE ( 'NONE', #153, #387, #338, .T. ) ;
#207 = PRODUCT_CONTEXT ( 'NONE', #303, 'mechanical' ) ;
#208 = DIRECTION ( 'NONE',  ( 0.0000000000000000000, -1.000000000000000000, 0.0000000000000000000 ) ) ;
#209 = FACE_BOUND ( 'NONE', #359, .T. ) ;
#210 = DIRECTION ( 'NONE',  ( -0.0000000000000000000, 1.000000000000000000, -0.0000000000000000000 ) ) ;
#211 = VECTOR ( 'NONE', #467, 1000.000000000000000 ) ;
#212 = AXIS2_PLACEMENT_3D ( 'NONE', #180, #820, #735 ) ;
#213 = DIRECTION ( 'NONE',  ( -1.000000000000000000, 0.0000000000000000000, 0.0000000000000000000 ) ) ;
#214 = DIRECTION ( 'NONE',  ( -1.000000000000000000, 0.0000000000000000000, 0.0000000000000000000 ) ) ;
#215 = DIRECTION ( 'NONE',  ( -0.0000000000000000000, -0.0000000000000000000, 1.000000000000000000 ) ) ;
#216 = ORIENTED_EDGE ( 'NONE', *, *, #496, .T. ) ;
#217 = ORIENTED_EDGE ( 'NONE', *, *, #808, .F. ) ;
#218 = CARTESIAN_POINT ( 'NONE',  ( 0.0000000000000000000, -27.99999999999999600, 0.0000000000000000000 ) ) ;
#219 =( LENGTH_UNIT ( ) NAMED_UNIT ( * ) SI_UNIT ( .MILLI., .METRE. ) );
#220 = DIRECTION ( 'NONE',  ( 0.0000000000000000000, 0.0000000000000000000, 1.000000000000000000 ) ) ;
#221 = AXIS2_PLACEMENT_3D ( 'NONE', #558, #88, #716 ) ;
#222 = DIRECTION ( 'NONE',  ( -0.0000000000000000000, -0.0000000000000000000, 1.000000000000000000 ) ) ;
#223 = FACE_OUTER_BOUND ( 'NONE', #694, .T. ) ;
#224 = CARTESIAN_POINT ( 'NONE',  ( 0.0000000000000000000, 0.0000000000000000000, -5.000000000000000000 ) ) ;
#225 = FACE_OUTER_BOUND ( 'NONE', #257, .T. ) ;
#226 =( GEOMETRIC_REPRESENTATION_CONTEXT ( 3 ) GLOBAL_UNCERTAINTY_ASSIGNED_CONTEXT ( ( #776 ) ) GLOBAL_UNIT_ASSIGNED_CONTEXT ( ( #219, #284, #763 ) ) REPRESENTATION_CONTEXT ( 'NONE', 'WORKASPACE' ) );
#227 = VERTEX_POINT ( 'NONE', #5 ) ;
#228 = PLANE ( 'NONE',  #970 ) ;
#229 = VECTOR ( 'NONE', #988, 1000.000000000000000 ) ;
#230 = CARTESIAN_POINT ( 'NONE',  ( 11.00000000000000000, 0.0000000000000000000, -5.000000000000000000 ) ) ;
#231 = VERTEX_POINT ( 'NONE', #555 ) ;
#232 = CARTESIAN_POINT ( 'NONE',  ( 8.216586365882186300, -30.49999999999998900, 7.000000000000000000 ) ) ;
#233 = VECTOR ( 'NONE', #280, 1000.000000000000100 ) ;
#234 = AXIS2_PLACEMENT_3D ( 'NONE', #380, #457, #767 ) ;
#235 = CIRCLE ( 'NONE', #904, 23.00000000000000700 ) ;
#236 = DIRECTION ( 'NONE',  ( 0.0000000000000000000, 0.0000000000000000000, -1.000000000000000000 ) ) ;
#237 = FACE_OUTER_BOUND ( 'NONE', #165, .T. ) ;
#238 = DIRECTION ( 'NONE',  ( -0.0000000000000000000, -0.0000000000000000000, 1.000000000000000000 ) ) ;
#239 = DIRECTION ( 'NONE',  ( 1.000000000000000000, 0.0000000000000000000, -0.0000000000000000000 ) ) ;
#240 = AXIS2_PLACEMENT_3D ( 'NONE', #353, #880, #589 ) ;
#241 = ORIENTED_EDGE ( 'NONE', *, *, #565, .F. ) ;
#242 = SURFACE_STYLE_FILL_AREA ( #680 ) ;
#243 = CARTESIAN_POINT ( 'NONE',  ( 3.499999999999999600, 28.00000000000000400, 7.000000000000000000 ) ) ;
#244 = EDGE_CURVE ( 'NONE', #569, #312, #700, .T. ) ;
#245 = DIRECTION ( 'NONE',  ( -0.0000000000000000000, -0.0000000000000000000, -1.000000000000000000 ) ) ;
#246 = AXIS2_PLACEMENT_3D ( 'NONE', #509, #892, #194 ) ;
#247 = VECTOR ( 'NONE', #586, 1000.000000000000000 ) ;
#248 = DIRECTION ( 'NONE',  ( 0.8660254037844390400, -0.4999999999999992200, 0.0000000000000000000 ) ) ;
#249 = ADVANCED_FACE ( 'NONE', ( #675 ), #572, .T. ) ;
#250 = LINE ( 'NONE', #409, #350 ) ;
#251 = PLANE ( 'NONE',  #728 ) ;
#252 = ORIENTED_EDGE ( 'NONE', *, *, #504, .F. ) ;
#253 = ORIENTED_EDGE ( 'NONE', *, *, #984, .T. ) ;
#254 = EDGE_CURVE ( 'NONE', #743, #564, #938, .T. ) ;
#255 = VERTEX_POINT ( 'NONE', #1010 ) ;
#256 = ORIENTED_EDGE ( 'NONE', *, *, #375, .T. ) ;
#257 = EDGE_LOOP ( 'NONE', ( #554, #754, #343, #672 ) ) ;
#258 = ADVANCED_FACE ( 'NONE', ( #8, #209 ), #251, .T. ) ;
#259 = EDGE_CURVE ( 'NONE', #952, #870, #22, .T. ) ;
#260 = CIRCLE ( 'NONE', #996, 8.500000000000000000 ) ;
#261 = VECTOR ( 'NONE', #351, 1000.000000000000000 ) ;
#262 = ORIENTED_EDGE ( 'NONE', *, *, #814, .T. ) ;
#263 = ORIENTED_EDGE ( 'NONE', *, *, #137, .F. ) ;
#264 = ORIENTED_EDGE ( 'NONE', *, *, #866, .F. ) ;
#265 = ORIENTED_EDGE ( 'NONE', *, *, #573, .F. ) ;
#266 = CARTESIAN_POINT ( 'NONE',  ( -3.499999999999999600, -27.99999999999999600, 7.000000000000000000 ) ) ;
#267 = VERTEX_POINT ( 'NONE', #585 ) ;
#268 = DIRECTION ( 'NONE',  ( -0.0000000000000000000, -0.0000000000000000000, -1.000000000000000000 ) ) ;
#269 = LINE ( 'NONE', #189, #1002 ) ;
#270 = EDGE_CURVE ( 'NONE', #231, #567, #911, .T. ) ;
#271 = DIRECTION ( 'NONE',  ( -0.0000000000000000000, -0.0000000000000000000, -1.000000000000000000 ) ) ;
#272 = LINE ( 'NONE', #304, #625 ) ;
#273 = EDGE_LOOP ( 'NONE', ( #345, #729, #96, #893 ) ) ;
#274 = DIRECTION ( 'NONE',  ( -0.0000000000000000000, -0.0000000000000000000, -1.000000000000000000 ) ) ;
#275 = ORIENTED_EDGE ( 'NONE', *, *, #717, .F. ) ;
#276 = CARTESIAN_POINT ( 'NONE',  ( 8.216586365882186300, -21.81426403256089600, 7.000000000000000000 ) ) ;
#277 = ORIENTED_EDGE ( 'NONE', *, *, #355, .F. ) ;
#278 = EDGE_CURVE ( 'NONE', #743, #951, #499, .T. ) ;
#279 = VERTEX_POINT ( 'NONE', #661 ) ;
#280 = DIRECTION ( 'NONE',  ( -0.8660254037844390400, -0.4999999999999992200, 0.0000000000000000000 ) ) ;
#281 = FACE_OUTER_BOUND ( 'NONE', #100, .T. ) ;
#282 = CARTESIAN_POINT ( 'NONE',  ( 20.00000000000000000, 0.0000000000000000000, -5.000000000000000000 ) ) ;
#283 = DIRECTION ( 'NONE',  ( 0.7071067811865475700, -0.7071067811865475700, 0.0000000000000000000 ) ) ;
#284 =( NAMED_UNIT ( * ) PLANE_ANGLE_UNIT ( ) SI_UNIT ( $, .RADIAN. ) );
#285 = VECTOR ( 'NONE', #575, 1000.000000000000000 ) ;
#286 = LINE ( 'NONE', #660, #177 ) ;
#287 = LINE ( 'NONE', #167, #873 ) ;
#288 = STYLED_ITEM ( 'NONE', ( #1019 ), #518 ) ;
#289 = PLANE ( 'NONE',  #704 ) ;
#290 = APPLICATION_PROTOCOL_DEFINITION ( 'draft international standard', 'automotive_design', 1998, #531 ) ;
#291 = ORIENTED_EDGE ( 'NONE', *, *, #553, .F. ) ;
#292 = DIRECTION ( 'NONE',  ( -1.000000000000000000, 0.0000000000000000000, 0.0000000000000000000 ) ) ;
#293 = VERTEX_POINT ( 'NONE', #891 ) ;
#294 = CARTESIAN_POINT ( 'NONE',  ( 0.0000000000000000000, -27.99999999999999600, 0.0000000000000000000 ) ) ;
#295 = ORIENTED_EDGE ( 'NONE', *, *, #934, .T. ) ;
#296 = AXIS2_PLACEMENT_3D ( 'NONE', #746, #32, #750 ) ;
#297 = CARTESIAN_POINT ( 'NONE',  ( 0.0000000000000000000, 0.0000000000000000000, -5.000000000000000000 ) ) ;
#298 = DIRECTION ( 'NONE',  ( -0.0000000000000000000, -0.0000000000000000000, 1.000000000000000000 ) ) ;
#299 = CARTESIAN_POINT ( 'NONE',  ( 8.216586365882186300, -21.81426403256089600, 7.000000000000000000 ) ) ;
#300 = CIRCLE ( 'NONE', #51, 23.00000000000000700 ) ;
#301 = VECTOR ( 'NONE', #64, 1000.000000000000000 ) ;
#302 = CARTESIAN_POINT ( 'NONE',  ( 8.500000000000000000, 1.040949779275250100E-015, 7.000000000000000000 ) ) ;
#303 = APPLICATION_CONTEXT ( 'automotive_design' ) ;
#304 = CARTESIAN_POINT ( 'NONE',  ( 8.216586365882186300, -30.49999999999998900, 7.000000000000000000 ) ) ;
#305 = EDGE_CURVE ( 'NONE', #580, #702, #269, .T. ) ;
#306 = CIRCLE ( 'NONE', #221, 20.00000000000000000 ) ;
#307 = VERTEX_POINT ( 'NONE', #974 ) ;
#308 = CARTESIAN_POINT ( 'NONE',  ( 0.0000000000000000000, -27.99999999999999600, 7.000000000000000000 ) ) ;
#309 = ORIENTED_EDGE ( 'NONE', *, *, #178, .T. ) ;
#310 = VECTOR ( 'NONE', #908, 1000.000000000000000 ) ;
#311 = ORIENTED_EDGE ( 'NONE', *, *, #534, .T. ) ;
#312 = VERTEX_POINT ( 'NONE', #576 ) ;
#313 = DIRECTION ( 'NONE',  ( 0.0000000000000000000, 0.0000000000000000000, -1.000000000000000000 ) ) ;
#314 = AXIS2_PLACEMENT_3D ( 'NONE', #99, #768, #66 ) ;
#315 = DIRECTION ( 'NONE',  ( 0.0000000000000000000, 0.0000000000000000000, -1.000000000000000000 ) ) ;
#316 = VECTOR ( 'NONE', #404, 1000.000000000000000 ) ;
#317 = PLANE ( 'NONE',  #673 ) ;
#318 = LINE ( 'NONE', #773, #301 ) ;
#319 = DIRECTION ( 'NONE',  ( -0.0000000000000000000, -0.0000000000000000000, -1.000000000000000000 ) ) ;
#320 = FACE_OUTER_BOUND ( 'NONE', #92, .T. ) ;
#321 = DIRECTION ( 'NONE',  ( 0.0000000000000000000, 0.0000000000000000000, 1.000000000000000000 ) ) ;
#322 = EDGE_CURVE ( 'NONE', #802, #510, #635, .T. ) ;
#323 = EDGE_LOOP ( 'NONE', ( #277, #1016 ) ) ;
#324 = CARTESIAN_POINT ( 'NONE',  ( 0.0000000000000000000, 0.0000000000000000000, 0.0000000000000000000 ) ) ;
#325 = PLANE ( 'NONE',  #483 ) ;
#326 = AXIS2_PLACEMENT_3D ( 'NONE', #432, #816, #745 ) ;
#327 = CIRCLE ( 'NONE', #377, 11.00000000000000000 ) ;
#328 = VECTOR ( 'NONE', #609, 1000.000000000000000 ) ;
#329 = VECTOR ( 'NONE', #992, 1000.000000000000000 ) ;
#330 = ORIENTED_EDGE ( 'NONE', *, *, #795, .T. ) ;
#331 = DIRECTION ( 'NONE',  ( 0.0000000000000000000, -0.0000000000000000000, 1.000000000000000000 ) ) ;
#332 = AXIS2_PLACEMENT_3D ( 'NONE', #787, #935, #477 ) ;
#333 = ADVANCED_FACE ( 'NONE', ( #957 ), #739, .F. ) ;
#334 = ORIENTED_EDGE ( 'NONE', *, *, #633, .F. ) ;
#335 = ORIENTED_EDGE ( 'NONE', *, *, #808, .T. ) ;
#336 = ORIENTED_EDGE ( 'NONE', *, *, #649, .F. ) ;
#337 = EDGE_CURVE ( 'NONE', #430, #484, #481, .T. ) ;
#338 = LINE ( 'NONE', #853, #517 ) ;
#339 = ADVANCED_FACE ( 'NONE', ( #883 ), #36, .F. ) ;
#340 = ORIENTED_EDGE ( 'NONE', *, *, #106, .F. ) ;
#341 = AXIS2_PLACEMENT_3D ( 'NONE', #701, #850, #844 ) ;
#342 = ORIENTED_EDGE ( 'NONE', *, *, #56, .F. ) ;
#343 = ORIENTED_EDGE ( 'NONE', *, *, #391, .F. ) ;
#344 = DIRECTION ( 'NONE',  ( -3.802623724666399200E-016, 1.000000000000000000, -0.0000000000000000000 ) ) ;
#345 = ORIENTED_EDGE ( 'NONE', *, *, #912, .T. ) ;
#346 = AXIS2_PLACEMENT_3D ( 'NONE', #361, #813, #181 ) ;
#347 = FACE_BOUND ( 'NONE', #793, .T. ) ;
#348 = ADVANCED_FACE ( 'NONE', ( #781 ), #427, .F. ) ;
#349 = LINE ( 'NONE', #505, #815 ) ;
#350 = VECTOR ( 'NONE', #248, 1000.000000000000100 ) ;
#351 = DIRECTION ( 'NONE',  ( 0.0000000000000000000, 0.0000000000000000000, 1.000000000000000000 ) ) ;
#352 = ORIENTED_EDGE ( 'NONE', *, *, #968, .T. ) ;
#353 = CARTESIAN_POINT ( 'NONE',  ( 0.0000000000000000000, -27.99999999999999600, 7.000000000000000000 ) ) ;
#354 = ORIENTED_EDGE ( 'NONE', *, *, #583, .F. ) ;
#355 = EDGE_CURVE ( 'NONE', #179, #842, #1014, .T. ) ;
#356 = ORIENTED_EDGE ( 'NONE', *, *, #945, .T. ) ;
#357 = DIRECTION ( 'NONE',  ( 1.000000000000000000, 0.0000000000000000000, 0.0000000000000000000 ) ) ;
#358 = VERTEX_POINT ( 'NONE', #198 ) ;
#359 = EDGE_LOOP ( 'NONE', ( #17, #463 ) ) ;
#360 = CARTESIAN_POINT ( 'NONE',  ( -8.500000000000000000, 0.0000000000000000000, 7.000000000000000000 ) ) ;
#361 = CARTESIAN_POINT ( 'NONE',  ( -11.49999999999999500, -19.91858428704209100, 7.000000000000000000 ) ) ;
#362 = DIRECTION ( 'NONE',  ( 0.0000000000000000000, 0.0000000000000000000, -1.000000000000000000 ) ) ;
#363 = CYLINDRICAL_SURFACE ( 'NONE', #11, 23.00000000000000000 ) ;
#364 = AXIS2_PLACEMENT_3D ( 'NONE', #540, #386, #699 ) ;
#365 = CARTESIAN_POINT ( 'NONE',  ( -23.00000000000000700, 0.0000000000000000000, 7.000000000000000000 ) ) ;
#366 = VECTOR ( 'NONE', #971, 1000.000000000000000 ) ;
#367 = ORIENTED_EDGE ( 'NONE', *, *, #962, .T. ) ;
#368 = VERTEX_POINT ( 'NONE', #120 ) ;
#369 = DIRECTION ( 'NONE',  ( 0.7071067811865476800, 0.7071067811865474600, 0.0000000000000000000 ) ) ;
#370 = SURFACE_SIDE_STYLE ('',( #403 ) ) ;
#371 = CARTESIAN_POINT ( 'NONE',  ( 20.00000000000000000, 0.0000000000000000000, -5.000000000000000000 ) ) ;
#372 = MANIFOLD_SOLID_BREP ( 'Smusso1', #187 ) ;
#373 = DIRECTION ( 'NONE',  ( 1.000000000000000000, 0.0000000000000000000, 0.0000000000000000000 ) ) ;
#374 = CIRCLE ( 'NONE', #641, 11.00000000000000000 ) ;
#375 = EDGE_CURVE ( 'NONE', #523, #905, #104, .T. ) ;
#376 = VECTOR ( 'NONE', #298, 1000.000000000000000 ) ;
#377 = AXIS2_PLACEMENT_3D ( 'NONE', #502, #362, #822 ) ;
#378 = CARTESIAN_POINT ( 'NONE',  ( 3.499999999999999600, -27.99999999999999600, 7.000000000000000000 ) ) ;
#379 = ORIENTED_EDGE ( 'NONE', *, *, #305, .T. ) ;
#380 = CARTESIAN_POINT ( 'NONE',  ( 0.0000000000000000000, 28.00000000000000400, 7.000000000000000000 ) ) ;
#381 = DIRECTION ( 'NONE',  ( 1.000000000000000000, 0.0000000000000000000, 0.0000000000000000000 ) ) ;
#382 = EDGE_LOOP ( 'NONE', ( #547, #708, #797, #445 ) ) ;
#383 = DIRECTION ( 'NONE',  ( 1.000000000000000000, 0.0000000000000000000, 0.0000000000000000000 ) ) ;
#384 = ORIENTED_EDGE ( 'NONE', *, *, #151, .F. ) ;
#385 = SURFACE_SIDE_STYLE ('',( #242 ) ) ;
#386 = DIRECTION ( 'NONE',  ( 0.0000000000000000000, 0.0000000000000000000, 1.000000000000000000 ) ) ;
#387 = VERTEX_POINT ( 'NONE', #49 ) ;
#388 = CARTESIAN_POINT ( 'NONE',  ( 0.0000000000000000000, 0.0000000000000000000, -5.000000000000000000 ) ) ;
#389 = DIRECTION ( 'NONE',  ( -1.000000000000000000, 0.0000000000000000000, 0.0000000000000000000 ) ) ;
#390 = LINE ( 'NONE', #57, #157 ) ;
#391 = EDGE_CURVE ( 'NONE', #846, #227, #663, .T. ) ;
#392 = CYLINDRICAL_SURFACE ( 'NONE', #416, 20.00000000000000000 ) ;
#393 = DIRECTION ( 'NONE',  ( -1.000000000000000000, 0.0000000000000000000, -0.0000000000000000000 ) ) ;
#394 = ORIENTED_EDGE ( 'NONE', *, *, #894, .T. ) ;
#395 = LINE ( 'NONE', #204, #310 ) ;
#396 = ORIENTED_EDGE ( 'NONE', *, *, #1003, .F. ) ;
#397 = CARTESIAN_POINT ( 'NONE',  ( -11.49999999999999500, -19.91858428704209100, 7.000000000000000000 ) ) ;
#398 = ORIENTED_EDGE ( 'NONE', *, *, #734, .F. ) ;
#399 = AXIS2_PLACEMENT_3D ( 'NONE', #132, #986, #214 ) ;
#400 = DIRECTION ( 'NONE',  ( -0.0000000000000000000, -0.0000000000000000000, -1.000000000000000000 ) ) ;
#401 = LINE ( 'NONE', #909, #328 ) ;
#402 = PLANE ( 'NONE',  #332 ) ;
#403 = SURFACE_STYLE_FILL_AREA ( #829 ) ;
#404 = DIRECTION ( 'NONE',  ( 0.0000000000000000000, 0.0000000000000000000, -1.000000000000000000 ) ) ;
#405 = FACE_BOUND ( 'NONE', #953, .T. ) ;
#406 = CARTESIAN_POINT ( 'NONE',  ( -8.216586365882179200, -35.49999999999999300, 7.000000000000000000 ) ) ;
#407 = ORIENTED_EDGE ( 'NONE', *, *, #337, .F. ) ;
#408 = EDGE_LOOP ( 'NONE', ( #139, #942, #420, #127, #48, #356, #722, #537, #199, #720, #933, #367, #429, #59, #97, #394, #752 ) ) ;
#409 = CARTESIAN_POINT ( 'NONE',  ( -11.49999999999999500, -19.91858428704209100, 0.0000000000000000000 ) ) ;
#410 = ADVANCED_FACE ( 'NONE', ( #84 ), #679, .F. ) ;
#411 = PRESENTATION_LAYER_ASSIGNMENT (  '', '', ( #288 ) ) ;
#412 = CARTESIAN_POINT ( 'NONE',  ( -3.216586365882188000, 35.50000000000000700, 0.0000000000000000000 ) ) ;
#413 = LINE ( 'NONE', #885, #261 ) ;
#414 = VECTOR ( 'NONE', #268, 1000.000000000000000 ) ;
#415 = ADVANCED_FACE ( 'NONE', ( #223 ), #608, .F. ) ;
#416 = AXIS2_PLACEMENT_3D ( 'NONE', #388, #222, #619 ) ;
#417 = EDGE_LOOP ( 'NONE', ( #252, #444, #25, #520 ) ) ;
#418 = ORIENTED_EDGE ( 'NONE', *, *, #691, .T. ) ;
#419 = EDGE_LOOP ( 'NONE', ( #579, #16, #568, #476 ) ) ;
#420 = ORIENTED_EDGE ( 'NONE', *, *, #151, .T. ) ;
#421 = EDGE_CURVE ( 'NONE', #123, #114, #437, .T. ) ;
#422 = ADVANCED_FACE ( 'NONE', ( #425 ), #623, .F. ) ;
#423 = DIRECTION ( 'NONE',  ( 1.000000000000000000, 0.0000000000000000000, 0.0000000000000000000 ) ) ;
#424 = LINE ( 'NONE', #302, #955 ) ;
#425 = FACE_OUTER_BOUND ( 'NONE', #618, .T. ) ;
#426 = EDGE_CURVE ( 'NONE', #564, #802, #349, .T. ) ;
#427 = PLANE ( 'NONE',  #561 ) ;
#428 = AXIS2_PLACEMENT_3D ( 'NONE', #276, #741, #732 ) ;
#429 = ORIENTED_EDGE ( 'NONE', *, *, #487, .T. ) ;
#430 = VERTEX_POINT ( 'NONE', #439 ) ;
#431 = ORIENTED_EDGE ( 'NONE', *, *, #993, .T. ) ;
#432 = CARTESIAN_POINT ( 'NONE',  ( 0.0000000000000000000, 0.0000000000000000000, -12.00000000000000000 ) ) ;
#433 = EDGE_CURVE ( 'NONE', #842, #179, #34, .T. ) ;
#434 = CARTESIAN_POINT ( 'NONE',  ( -8.216586365882188000, 35.50000000000000700, 7.000000000000000000 ) ) ;
#435 = CARTESIAN_POINT ( 'NONE',  ( -8.216586365882188000, 35.50000000000000700, 7.000000000000000000 ) ) ;
#436 = PLANE ( 'NONE',  #246 ) ;
#437 = LINE ( 'NONE', #759, #376 ) ;
#438 = ORIENTED_EDGE ( 'NONE', *, *, #76, .T. ) ;
#439 = CARTESIAN_POINT ( 'NONE',  ( 3.499999999999999600, 28.00000000000000400, 0.0000000000000000000 ) ) ;
#440 = EDGE_LOOP ( 'NONE', ( #874, #39, #141, #726 ) ) ;
#441 = DIRECTION ( 'NONE',  ( 0.0000000000000000000, 0.0000000000000000000, -1.000000000000000000 ) ) ;
#442 = DIRECTION ( 'NONE',  ( 0.0000000000000000000, 0.0000000000000000000, 1.000000000000000000 ) ) ;
#443 = EDGE_CURVE ( 'NONE', #545, #387, #286, .T. ) ;
#444 = ORIENTED_EDGE ( 'NONE', *, *, #421, .T. ) ;
#445 = ORIENTED_EDGE ( 'NONE', *, *, #620, .F. ) ;
#446 = DIRECTION ( 'NONE',  ( -0.0000000000000000000, -0.0000000000000000000, -1.000000000000000000 ) ) ;
#447 =( NAMED_UNIT ( * ) SI_UNIT ( $, .STERADIAN. ) SOLID_ANGLE_UNIT ( ) );
#448 = CYLINDRICAL_SURFACE ( 'NONE', #86, 3.499999999999999600 ) ;
#449 = LINE ( 'NONE', #378, #20 ) ;
#450 = AXIS2_PLACEMENT_3D ( 'NONE', #500, #584, #958 ) ;
#451 = DIRECTION ( 'NONE',  ( 0.0000000000000000000, 0.0000000000000000000, -1.000000000000000000 ) ) ;
#452 = COLOUR_RGB ( '',1.000000000000000000, 0.0000000000000000000, 0.0000000000000000000 ) ;
#453 = ORIENTED_EDGE ( 'NONE', *, *, #866, .T. ) ;
#454 = CARTESIAN_POINT ( 'NONE',  ( -8.216586365882186300, 21.81426403256090700, 7.000000000000000000 ) ) ;
#455 = EDGE_CURVE ( 'NONE', #991, #73, #159, .T. ) ;
#456 = ORIENTED_EDGE ( 'NONE', *, *, #825, .F. ) ;
#457 = DIRECTION ( 'NONE',  ( 0.0000000000000000000, 0.0000000000000000000, 1.000000000000000000 ) ) ;
#458 = CARTESIAN_POINT ( 'NONE',  ( 8.216586365882186300, -21.81426403256089600, 0.0000000000000000000 ) ) ;
#459 = CARTESIAN_POINT ( 'NONE',  ( -20.00000000000000000, 2.449293598294706500E-015, -5.000000000000000000 ) ) ;
#460 =( LENGTH_UNIT ( ) NAMED_UNIT ( * ) SI_UNIT ( .MILLI., .METRE. ) );
#461 = EDGE_CURVE ( 'NONE', #105, #495, #413, .T. ) ;
#462 = MECHANICAL_DESIGN_GEOMETRIC_PRESENTATION_REPRESENTATION (  '', ( #288 ), #68 ) ;
#463 = ORIENTED_EDGE ( 'NONE', *, *, #559, .F. ) ;
#464 = ORIENTED_EDGE ( 'NONE', *, *, #570, .F. ) ;
#465 = ORIENTED_EDGE ( 'NONE', *, *, #461, .T. ) ;
#466 = CARTESIAN_POINT ( 'NONE',  ( 3.216586365882180900, 35.50000000000000700, 7.000000000000000000 ) ) ;
#467 = DIRECTION ( 'NONE',  ( 0.7071067811865474600, 0.7071067811865476800, -0.0000000000000000000 ) ) ;
#468 = ORIENTED_EDGE ( 'NONE', *, *, #984, .F. ) ;
#469 = CARTESIAN_POINT ( 'NONE',  ( -8.216586365882188000, 35.50000000000000700, 7.000000000000000000 ) ) ;
#470 = DIRECTION ( 'NONE',  ( -1.000000000000000000, 0.0000000000000000000, 0.0000000000000000000 ) ) ;
#471 = CARTESIAN_POINT ( 'NONE',  ( 3.216586365882180900, 35.50000000000000700, 7.000000000000000000 ) ) ;
#472 = EDGE_CURVE ( 'NONE', #580, #105, #852, .T. ) ;
#473 = VERTEX_POINT ( 'NONE', #804 ) ;
#474 = CARTESIAN_POINT ( 'NONE',  ( 0.0000000000000000000, 0.0000000000000000000, 7.000000000000000000 ) ) ;
#475 = COLOUR_RGB ( '',1.000000000000000000, 0.0000000000000000000, 0.0000000000000000000 ) ;
#476 = ORIENTED_EDGE ( 'NONE', *, *, #888, .F. ) ;
#477 = DIRECTION ( 'NONE',  ( -1.267541241555467700E-016, 1.000000000000000000, 0.0000000000000000000 ) ) ;
#478 = EDGE_LOOP ( 'NONE', ( #886, #4, #464, #352 ) ) ;
#479 = EDGE_CURVE ( 'NONE', #142, #105, #760, .T. ) ;
#480 = CARTESIAN_POINT ( 'NONE',  ( -20.00000000000000000, 2.449293598294706500E-015, -5.000000000000000000 ) ) ;
#481 = CIRCLE ( 'NONE', #296, 3.499999999999999600 ) ;
#482 = CIRCLE ( 'NONE', #314, 8.500000000000000000 ) ;
#483 = AXIS2_PLACEMENT_3D ( 'NONE', #79, #158, #709 ) ;
#484 = VERTEX_POINT ( 'NONE', #197 ) ;
#485 = ORIENTED_EDGE ( 'NONE', *, *, #814, .F. ) ;
#486 = ORIENTED_EDGE ( 'NONE', *, *, #945, .F. ) ;
#487 = EDGE_CURVE ( 'NONE', #473, #616, #801, .T. ) ;
#488 = ADVANCED_FACE ( 'NONE', ( #67 ), #498, .T. ) ;
#489 = VECTOR ( 'NONE', #780, 1000.000000000000000 ) ;
#490 = ORIENTED_EDGE ( 'NONE', *, *, #305, .F. ) ;
#491 =( GEOMETRIC_REPRESENTATION_CONTEXT ( 3 ) GLOBAL_UNCERTAINTY_ASSIGNED_CONTEXT ( ( #924 ) ) GLOBAL_UNIT_ASSIGNED_CONTEXT ( ( #600, #901, #447 ) ) REPRESENTATION_CONTEXT ( 'NONE', 'WORKASPACE' ) );
#492 = ORIENTED_EDGE ( 'NONE', *, *, #526, .T. ) ;
#493 = ORIENTED_EDGE ( 'NONE', *, *, #825, .T. ) ;
#494 = ADVANCED_FACE ( 'NONE', ( #516 ), #800, .T. ) ;
#495 = VERTEX_POINT ( 'NONE', #666 ) ;
#496 = EDGE_CURVE ( 'NONE', #905, #951, #235, .T. ) ;
#497 = LINE ( 'NONE', #115, #757 ) ;
#498 = CYLINDRICAL_SURFACE ( 'NONE', #212, 11.00000000000000000 ) ;
#499 = LINE ( 'NONE', #506, #652 ) ;
#500 = CARTESIAN_POINT ( 'NONE',  ( 0.0000000000000000000, 28.00000000000000400, 7.000000000000000000 ) ) ;
#501 = LINE ( 'NONE', #799, #574 ) ;
#502 = CARTESIAN_POINT ( 'NONE',  ( 0.0000000000000000000, 0.0000000000000000000, -5.000000000000000000 ) ) ;
#503 = VERTEX_POINT ( 'NONE', #360 ) ;
#504 = EDGE_CURVE ( 'NONE', #123, #695, #45, .T. ) ;
#505 = CARTESIAN_POINT ( 'NONE',  ( -8.216586365882180900, -21.81426403256089600, 7.000000000000000000 ) ) ;
#506 = CARTESIAN_POINT ( 'NONE',  ( -11.49999999999999500, -19.91858428704209100, 7.000000000000000000 ) ) ;
#507 = AXIS2_PLACEMENT_3D ( 'NONE', #689, #47, #847 ) ;
#508 = ADVANCED_FACE ( 'NONE', ( #749 ), #363, .T. ) ;
#509 = CARTESIAN_POINT ( 'NONE',  ( 8.216586365882186300, -21.81426403256089600, 7.000000000000000000 ) ) ;
#510 = VERTEX_POINT ( 'NONE', #188 ) ;
#511 = DIRECTION ( 'NONE',  ( -1.000000000000000000, 0.0000000000000000000, 0.0000000000000000000 ) ) ;
#512 = VERTEX_POINT ( 'NONE', #812 ) ;
#513 = DIRECTION ( 'NONE',  ( -1.000000000000000000, 0.0000000000000000000, 0.0000000000000000000 ) ) ;
#514 = DIRECTION ( 'NONE',  ( 1.000000000000000000, 1.267541241555467500E-016, -0.0000000000000000000 ) ) ;
#515 = VECTOR ( 'NONE', #710, 1000.000000000000000 ) ;
#516 = FACE_OUTER_BOUND ( 'NONE', #919, .T. ) ;
#517 = VECTOR ( 'NONE', #789, 1000.000000000000100 ) ;
#518 = ADVANCED_BREP_SHAPE_REPRESENTATION ( 'bearing 17 mm cuscinetto flangiato piatto', ( #372, #769 ), #226 ) ;
#519 = DIRECTION ( 'NONE',  ( 1.000000000000000000, 0.0000000000000000000, 0.0000000000000000000 ) ) ;
#520 = ORIENTED_EDGE ( 'NONE', *, *, #843, .F. ) ;
#521 = DIRECTION ( 'NONE',  ( 0.0000000000000000000, 0.0000000000000000000, 1.000000000000000000 ) ) ;
#522 = CARTESIAN_POINT ( 'NONE',  ( -23.00000000000000700, 0.0000000000000000000, 7.000000000000000000 ) ) ;
#523 = VERTEX_POINT ( 'NONE', #365 ) ;
#524 = DIRECTION ( 'NONE',  ( -0.8660254037844390400, -0.4999999999999992200, 0.0000000000000000000 ) ) ;
#525 = DIRECTION ( 'NONE',  ( 0.0000000000000000000, 0.0000000000000000000, 1.000000000000000000 ) ) ;
#526 = EDGE_CURVE ( 'NONE', #503, #112, #260, .T. ) ;
#527 = AXIS2_PLACEMENT_3D ( 'NONE', #466, #80, #638 ) ;
#528 = DIRECTION ( 'NONE',  ( 0.0000000000000000000, 0.0000000000000000000, -1.000000000000000000 ) ) ;
#529 = CARTESIAN_POINT ( 'NONE',  ( 19.35829318294109300, -19.35829318294108600, 7.000000000000000000 ) ) ;
#530 = LINE ( 'NONE', #529, #211 ) ;
#531 = APPLICATION_CONTEXT ( 'automotive_design' ) ;
#532 = ORIENTED_EDGE ( 'NONE', *, *, #9, .T. ) ;
#533 = LINE ( 'NONE', #686, #595 ) ;
#534 = EDGE_CURVE ( 'NONE', #695, #123, #374, .T. ) ;
#535 = ORIENTED_EDGE ( 'NONE', *, *, #426, .F. ) ;
#536 = DIRECTION ( 'NONE',  ( -0.0000000000000000000, -0.0000000000000000000, -1.000000000000000000 ) ) ;
#537 = ORIENTED_EDGE ( 'NONE', *, *, #878, .T. ) ;
#538 = DIRECTION ( 'NONE',  ( -0.7071067811865476800, 0.7071067811865474600, 0.0000000000000000000 ) ) ;
#539 = LINE ( 'NONE', #859, #515 ) ;
#540 = CARTESIAN_POINT ( 'NONE',  ( 0.0000000000000000000, 0.0000000000000000000, 7.000000000000000000 ) ) ;
#541 = CIRCLE ( 'NONE', #882, 20.00000000000000000 ) ;
#542 = DIRECTION ( 'NONE',  ( -0.7071067811865476800, 0.7071067811865474600, -0.0000000000000000000 ) ) ;
#543 = VECTOR ( 'NONE', #845, 1000.000000000000000 ) ;
#544 = CARTESIAN_POINT ( 'NONE',  ( 0.0000000000000000000, 0.0000000000000000000, 0.0000000000000000000 ) ) ;
#545 = VERTEX_POINT ( 'NONE', #890 ) ;
#546 = CARTESIAN_POINT ( 'NONE',  ( 0.0000000000000000000, 0.0000000000000000000, -12.00000000000000000 ) ) ;
#547 = ORIENTED_EDGE ( 'NONE', *, *, #76, .F. ) ;
#548 = AXIS2_PLACEMENT_3D ( 'NONE', #297, #451, #615 ) ;
#549 = ORIENTED_EDGE ( 'NONE', *, *, #196, .F. ) ;
#550 = PRODUCT_DEFINITION_SHAPE ( 'NONE', 'NONE',  #817 ) ;
#551 = CYLINDRICAL_SURFACE ( 'NONE', #603, 3.499999999999999600 ) ;
#552 = VECTOR ( 'NONE', #35, 1000.000000000000000 ) ;
#553 = EDGE_CURVE ( 'NONE', #61, #255, #607, .T. ) ;
#554 = ORIENTED_EDGE ( 'NONE', *, *, #38, .T. ) ;
#555 = CARTESIAN_POINT ( 'NONE',  ( 11.49999999999998800, 19.91858428704209100, 7.000000000000000000 ) ) ;
#556 = ORIENTED_EDGE ( 'NONE', *, *, #573, .T. ) ;
#557 = VERTEX_POINT ( 'NONE', #678 ) ;
#558 = CARTESIAN_POINT ( 'NONE',  ( 0.0000000000000000000, 0.0000000000000000000, 0.0000000000000000000 ) ) ;
#559 = EDGE_CURVE ( 'NONE', #512, #848, #758, .T. ) ;
#560 = LINE ( 'NONE', #975, #366 ) ;
#561 = AXIS2_PLACEMENT_3D ( 'NONE', #435, #514, #117 ) ;
#562 = DIRECTION ( 'NONE',  ( 1.000000000000000000, 0.0000000000000000000, 0.0000000000000000000 ) ) ;
#563 = FACE_OUTER_BOUND ( 'NONE', #419, .T. ) ;
#564 = VERTEX_POINT ( 'NONE', #997 ) ;
#565 = EDGE_CURVE ( 'NONE', #952, #61, #449, .T. ) ;
#566 = CARTESIAN_POINT ( 'NONE',  ( 3.499999999999999600, -27.99999999999999600, 0.0000000000000000000 ) ) ;
#567 = VERTEX_POINT ( 'NONE', #985 ) ;
#568 = ORIENTED_EDGE ( 'NONE', *, *, #592, .F. ) ;
#569 = VERTEX_POINT ( 'NONE', #459 ) ;
#570 = EDGE_CURVE ( 'NONE', #616, #358, #94, .T. ) ;
#571 = VECTOR ( 'NONE', #446, 1000.000000000000000 ) ;
#572 = CYLINDRICAL_SURFACE ( 'NONE', #778, 23.00000000000000700 ) ;
#573 = EDGE_CURVE ( 'NONE', #702, #802, #401, .T. ) ;
#574 = VECTOR ( 'NONE', #344, 1000.000000000000000 ) ;
#575 = DIRECTION ( 'NONE',  ( -0.7071067811865474600, -0.7071067811865476800, 0.0000000000000000000 ) ) ;
#576 = CARTESIAN_POINT ( 'NONE',  ( -20.00000000000000000, 2.449293598294706500E-015, 0.0000000000000000000 ) ) ;
#577 = AXIS2_PLACEMENT_3D ( 'NONE', #755, #528, #292 ) ;
#578 = CARTESIAN_POINT ( 'NONE',  ( -8.500000000000000000, 0.0000000000000000000, -12.00000000000000000 ) ) ;
#579 = ORIENTED_EDGE ( 'NONE', *, *, #355, .T. ) ;
#580 = VERTEX_POINT ( 'NONE', #52 ) ;
#581 = VERTEX_POINT ( 'NONE', #131 ) ;
#582 = CARTESIAN_POINT ( 'NONE',  ( -8.216586365882186300, 21.81426403256090700, 0.0000000000000000000 ) ) ;
#583 = EDGE_CURVE ( 'NONE', #114, #154, #851, .T. ) ;
#584 = DIRECTION ( 'NONE',  ( 0.0000000000000000000, 0.0000000000000000000, 1.000000000000000000 ) ) ;
#585 = CARTESIAN_POINT ( 'NONE',  ( -3.216586365882188000, 35.50000000000000700, 7.000000000000000000 ) ) ;
#586 = DIRECTION ( 'NONE',  ( -0.0000000000000000000, -0.0000000000000000000, -1.000000000000000000 ) ) ;
#587 = VECTOR ( 'NONE', #833, 1000.000000000000000 ) ;
#588 = LINE ( 'NONE', #191, #229 ) ;
#589 = DIRECTION ( 'NONE',  ( 1.000000000000000000, 0.0000000000000000000, 0.0000000000000000000 ) ) ;
#590 = ORIENTED_EDGE ( 'NONE', *, *, #461, .F. ) ;
#591 = DIRECTION ( 'NONE',  ( 1.000000000000000000, 0.0000000000000000000, 0.0000000000000000000 ) ) ;
#592 = EDGE_CURVE ( 'NONE', #484, #430, #926, .T. ) ;
#593 = CARTESIAN_POINT ( 'NONE',  ( 0.0000000000000000000, 0.0000000000000000000, 7.000000000000000000 ) ) ;
#594 = DIRECTION ( 'NONE',  ( -0.7071067811865474600, 0.7071067811865476800, -0.0000000000000000000 ) ) ;
#595 = VECTOR ( 'NONE', #756, 1000.000000000000000 ) ;
#596 = CARTESIAN_POINT ( 'NONE',  ( 8.216586365882182700, 21.81426403256089600, 7.000000000000000000 ) ) ;
#597 = ORIENTED_EDGE ( 'NONE', *, *, #559, .T. ) ;
#598 = ORIENTED_EDGE ( 'NONE', *, *, #375, .F. ) ;
#599 = EDGE_LOOP ( 'NONE', ( #1009, #713 ) ) ;
#600 =( LENGTH_UNIT ( ) NAMED_UNIT ( * ) SI_UNIT ( .MILLI., .METRE. ) );
#601 = FILL_AREA_STYLE_COLOUR ( '', #475 ) ;
#602 = VECTOR ( 'NONE', #238, 1000.000000000000000 ) ;
#603 = AXIS2_PLACEMENT_3D ( 'NONE', #990, #135, #685 ) ;
#604 = DIRECTION ( 'NONE',  ( 1.000000000000000000, 0.0000000000000000000, 0.0000000000000000000 ) ) ;
#605 = ADVANCED_FACE ( 'NONE', ( #563 ), #551, .F. ) ;
#606 = CARTESIAN_POINT ( 'NONE',  ( 8.216586365882186300, -21.81426403256089600, 7.000000000000000000 ) ) ;
#607 = CIRCLE ( 'NONE', #62, 3.499999999999999600 ) ;
#608 = CYLINDRICAL_SURFACE ( 'NONE', #399, 3.499999999999999600 ) ;
#609 = DIRECTION ( 'NONE',  ( 0.0000000000000000000, 0.0000000000000000000, 1.000000000000000000 ) ) ;
#610 = FACE_OUTER_BOUND ( 'NONE', #408, .T. ) ;
#611 = CARTESIAN_POINT ( 'NONE',  ( -8.216586365882188000, 35.50000000000000700, 7.000000000000000000 ) ) ;
#612 = EDGE_CURVE ( 'NONE', #112, #512, #424, .T. ) ;
#613 = SHAPE_DEFINITION_REPRESENTATION ( #550, #518 ) ;
#614 = EDGE_LOOP ( 'NONE', ( #656, #590, #864, #263 ) ) ;
#615 = DIRECTION ( 'NONE',  ( -1.000000000000000000, 0.0000000000000000000, 0.0000000000000000000 ) ) ;
#616 = VERTEX_POINT ( 'NONE', #140 ) ;
#617 = CARTESIAN_POINT ( 'NONE',  ( 0.0000000000000000000, 0.0000000000000000000, 7.000000000000000000 ) ) ;
#618 = EDGE_LOOP ( 'NONE', ( #705, #646, #655, #407 ) ) ;
#619 = DIRECTION ( 'NONE',  ( 1.000000000000000000, 0.0000000000000000000, 0.0000000000000000000 ) ) ;
#620 = EDGE_CURVE ( 'NONE', #1008, #368, #1012, .T. ) ;
#621 = AXIS2_PLACEMENT_3D ( 'NONE', #676, #910, #55 ) ;
#622 = CARTESIAN_POINT ( 'NONE',  ( -8.216586365882186300, 21.81426403256090700, 7.000000000000000000 ) ) ;
#623 = CYLINDRICAL_SURFACE ( 'NONE', #976, 3.499999999999999600 ) ;
#624 = CARTESIAN_POINT ( 'NONE',  ( 8.216586365882186300, -30.49999999999998900, 0.0000000000000000000 ) ) ;
#625 = VECTOR ( 'NONE', #143, 1000.000000000000000 ) ;
#626 = CARTESIAN_POINT ( 'NONE',  ( -11.00000000000000000, 1.347111479062088400E-015, -5.000000000000000000 ) ) ;
#627 = EDGE_CURVE ( 'NONE', #846, #557, #830, .T. ) ;
#628 = DIRECTION ( 'NONE',  ( -0.0000000000000000000, -0.0000000000000000000, -1.000000000000000000 ) ) ;
#629 = ORIENTED_EDGE ( 'NONE', *, *, #259, .F. ) ;
#630 = CARTESIAN_POINT ( 'NONE',  ( -8.216586365882179200, -35.49999999999999300, 7.000000000000000000 ) ) ;
#631 = DIRECTION ( 'NONE',  ( 1.000000000000000000, 0.0000000000000000000, 0.0000000000000000000 ) ) ;
#632 = DIRECTION ( 'NONE',  ( 0.8660254037844390400, -0.4999999999999992200, 0.0000000000000000000 ) ) ;
#633 = EDGE_CURVE ( 'NONE', #581, #153, #390, .T. ) ;
#634 = FACE_OUTER_BOUND ( 'NONE', #614, .T. ) ;
#635 = LINE ( 'NONE', #41, #712 ) ;
#636 = PLANE ( 'NONE',  #527 ) ;
#637 = CIRCLE ( 'NONE', #93, 23.00000000000000700 ) ;
#638 = DIRECTION ( 'NONE',  ( 0.0000000000000000000, 0.0000000000000000000, -1.000000000000000000 ) ) ;
#639 = DIRECTION ( 'NONE',  ( 0.0000000000000000000, 1.000000000000000000, 0.0000000000000000000 ) ) ;
#640 = EDGE_LOOP ( 'NONE', ( #205, #796, #396, #398 ) ) ;
#641 = AXIS2_PLACEMENT_3D ( 'NONE', #913, #128, #213 ) ;
#642 = ORIENTED_EDGE ( 'NONE', *, *, #665, .T. ) ;
#643 = ADVANCED_FACE ( 'NONE', ( #770 ), #289, .F. ) ;
#644 = PRESENTATION_STYLE_ASSIGNMENT (( #998 ) ) ;
#645 = AXIS2_PLACEMENT_3D ( 'NONE', #150, #782, #562 ) ;
#646 = ORIENTED_EDGE ( 'NONE', *, *, #433, .T. ) ;
#647 = ORIENTED_EDGE ( 'NONE', *, *, #691, .F. ) ;
#648 = EDGE_LOOP ( 'NONE', ( #899, #78, #15, #493 ) ) ;
#649 = EDGE_CURVE ( 'NONE', #73, #267, #895, .T. ) ;
#650 = ORIENTED_EDGE ( 'NONE', *, *, #443, .F. ) ;
#651 = ADVANCED_FACE ( 'NONE', ( #147 ), #733, .F. ) ;
#652 = VECTOR ( 'NONE', #667, 1000.000000000000000 ) ;
#653 = ORIENTED_EDGE ( 'NONE', *, *, #322, .F. ) ;
#654 = CARTESIAN_POINT ( 'NONE',  ( 0.0000000000000000000, 0.0000000000000000000, 7.000000000000000000 ) ) ;
#655 = ORIENTED_EDGE ( 'NONE', *, *, #888, .T. ) ;
#656 = ORIENTED_EDGE ( 'NONE', *, *, #130, .F. ) ;
#657 = ADVANCED_FACE ( 'NONE', ( #634 ), #146, .F. ) ;
#658 = AXIS2_PLACEMENT_3D ( 'NONE', #617, #220, #765 ) ;
#659 = DIRECTION ( 'NONE',  ( -0.0000000000000000000, -0.0000000000000000000, -1.000000000000000000 ) ) ;
#660 = CARTESIAN_POINT ( 'NONE',  ( 11.49999999999998200, -19.91858428704209800, 7.000000000000000000 ) ) ;
#661 = CARTESIAN_POINT ( 'NONE',  ( -11.49999999999999800, 19.91858428704209400, 0.0000000000000000000 ) ) ;
#662 = CARTESIAN_POINT ( 'NONE',  ( -23.00000000000000700, 0.0000000000000000000, 0.0000000000000000000 ) ) ;
#663 = LINE ( 'NONE', #762, #587 ) ;
#664 = PLANE ( 'NONE',  #658 ) ;
#665 = EDGE_CURVE ( 'NONE', #112, #503, #711, .T. ) ;
#666 = CARTESIAN_POINT ( 'NONE',  ( 3.216586365882188000, -35.49999999999999300, 7.000000000000000000 ) ) ;
#667 = DIRECTION ( 'NONE',  ( -0.0000000000000000000, -0.0000000000000000000, -1.000000000000000000 ) ) ;
#668 = CARTESIAN_POINT ( 'NONE',  ( -8.500000000000000000, 0.0000000000000000000, 7.000000000000000000 ) ) ;
#669 = EDGE_LOOP ( 'NONE', ( #12, #201 ) ) ;
#670 = EDGE_LOOP ( 'NONE', ( #653, #265, #490, #217 ) ) ;
#671 = ORIENTED_EDGE ( 'NONE', *, *, #278, .F. ) ;
#672 = ORIENTED_EDGE ( 'NONE', *, *, #627, .T. ) ;
#673 = AXIS2_PLACEMENT_3D ( 'NONE', #544, #321, #239 ) ;
#674 =( NAMED_UNIT ( * ) SI_UNIT ( $, .STERADIAN. ) SOLID_ANGLE_UNIT ( ) );
#675 = FACE_OUTER_BOUND ( 'NONE', #1007, .T. ) ;
#676 = CARTESIAN_POINT ( 'NONE',  ( 0.0000000000000000000, 0.0000000000000000000, 7.000000000000000000 ) ) ;
#677 = AXIS2_PLACEMENT_3D ( 'NONE', #89, #858, #162 ) ;
#678 = CARTESIAN_POINT ( 'NONE',  ( 8.216586365882182700, 21.81426403256089600, 0.0000000000000000000 ) ) ;
#679 = PLANE ( 'NONE',  #721 ) ;
#680 = FILL_AREA_STYLE ('',( #601 ) ) ;
#681 = ORIENTED_EDGE ( 'NONE', *, *, #894, .F. ) ;
#682 = ORIENTED_EDGE ( 'NONE', *, *, #724, .F. ) ;
#683 = DIRECTION ( 'NONE',  ( -0.0000000000000000000, -0.0000000000000000000, -1.000000000000000000 ) ) ;
#684 = EDGE_CURVE ( 'NONE', #227, #307, #936, .T. ) ;
#685 = DIRECTION ( 'NONE',  ( -1.000000000000000000, 0.0000000000000000000, 0.0000000000000000000 ) ) ;
#686 = CARTESIAN_POINT ( 'NONE',  ( -8.216586365882188000, 30.50000000000000400, 7.000000000000000000 ) ) ;
#687 = LINE ( 'NONE', #1001, #169 ) ;
#688 = VECTOR ( 'NONE', #719, 1000.000000000000000 ) ;
#689 = CARTESIAN_POINT ( 'NONE',  ( 0.0000000000000000000, 0.0000000000000000000, 7.000000000000000000 ) ) ;
#690 = ORIENTED_EDGE ( 'NONE', *, *, #479, .T. ) ;
#691 = EDGE_CURVE ( 'NONE', #293, #73, #318, .T. ) ;
#692 = EDGE_LOOP ( 'NONE', ( #714, #650, #486, #108 ) ) ;
#693 = DIRECTION ( 'NONE',  ( 0.4999999999999992200, -0.8660254037844391500, 0.0000000000000000000 ) ) ;
#694 = EDGE_LOOP ( 'NONE', ( #241, #973, #809, #291 ) ) ;
#695 = VERTEX_POINT ( 'NONE', #925 ) ;
#696 = ORIENTED_EDGE ( 'NONE', *, *, #592, .T. ) ;
#697 = DIRECTION ( 'NONE',  ( 1.000000000000000000, 0.0000000000000000000, 0.0000000000000000000 ) ) ;
#698 = CARTESIAN_POINT ( 'NONE',  ( -3.499999999999999600, -27.99999999999999600, 7.000000000000000000 ) ) ;
#699 = DIRECTION ( 'NONE',  ( 1.000000000000000000, 0.0000000000000000000, 0.0000000000000000000 ) ) ;
#700 = LINE ( 'NONE', #480, #688 ) ;
#701 = CARTESIAN_POINT ( 'NONE',  ( 0.0000000000000000000, 0.0000000000000000000, 0.0000000000000000000 ) ) ;
#702 = VERTEX_POINT ( 'NONE', #928 ) ;
#703 = DIRECTION ( 'NONE',  ( 0.0000000000000000000, 0.0000000000000000000, -1.000000000000000000 ) ) ;
#704 = AXIS2_PLACEMENT_3D ( 'NONE', #828, #369, #900 ) ;
#705 = ORIENTED_EDGE ( 'NONE', *, *, #862, .F. ) ;
#706 = EDGE_LOOP ( 'NONE', ( #418, #889, #786, #309 ) ) ;
#707 = DIRECTION ( 'NONE',  ( -0.0000000000000000000, -0.0000000000000000000, -1.000000000000000000 ) ) ;
#708 = ORIENTED_EDGE ( 'NONE', *, *, #244, .T. ) ;
#709 = DIRECTION ( 'NONE',  ( 3.802623724666399700E-016, -1.000000000000000000, 0.0000000000000000000 ) ) ;
#710 = DIRECTION ( 'NONE',  ( 0.7071067811865476800, -0.7071067811865474600, -0.0000000000000000000 ) ) ;
#711 = CIRCLE ( 'NONE', #838, 8.500000000000000000 ) ;
#712 = VECTOR ( 'NONE', #193, 1000.000000000000000 ) ;
#713 = ORIENTED_EDGE ( 'NONE', *, *, #665, .F. ) ;
#714 = ORIENTED_EDGE ( 'NONE', *, *, #206, .T. ) ;
#715 = ADVANCED_FACE ( 'NONE', ( #81, #347 ), #228, .T. ) ;
#716 = DIRECTION ( 'NONE',  ( 1.000000000000000000, 0.0000000000000000000, 0.0000000000000000000 ) ) ;
#717 = EDGE_CURVE ( 'NONE', #184, #227, #687, .T. ) ;
#718 = VECTOR ( 'NONE', #753, 1000.000000000000100 ) ;
#719 = DIRECTION ( 'NONE',  ( -0.0000000000000000000, -0.0000000000000000000, 1.000000000000000000 ) ) ;
#720 = ORIENTED_EDGE ( 'NONE', *, *, #684, .T. ) ;
#721 = AXIS2_PLACEMENT_3D ( 'NONE', #611, #208, #907 ) ;
#722 = ORIENTED_EDGE ( 'NONE', *, *, #106, .T. ) ;
#723 = DIRECTION ( 'NONE',  ( 0.0000000000000000000, 0.0000000000000000000, 1.000000000000000000 ) ) ;
#724 = EDGE_CURVE ( 'NONE', #312, #368, #541, .T. ) ;
#725 = LINE ( 'NONE', #471, #70 ) ;
#726 = ORIENTED_EDGE ( 'NONE', *, *, #6, .T. ) ;
#727 = ADVANCED_FACE ( 'NONE', ( #881 ), #777, .F. ) ;
#728 = AXIS2_PLACEMENT_3D ( 'NONE', #546, #703, #948 ) ;
#729 = ORIENTED_EDGE ( 'NONE', *, *, #627, .F. ) ;
#730 = LINE ( 'NONE', #582, #233 ) ;
#731 = ADVANCED_FACE ( 'NONE', ( #748 ), #448, .F. ) ;
#732 = DIRECTION ( 'NONE',  ( -0.8660254037844390400, -0.4999999999999991100, 0.0000000000000000000 ) ) ;
#733 = CYLINDRICAL_SURFACE ( 'NONE', #507, 8.500000000000000000 ) ;
#734 = EDGE_CURVE ( 'NONE', #870, #255, #956, .T. ) ;
#735 = DIRECTION ( 'NONE',  ( 1.000000000000000000, 0.0000000000000000000, 0.0000000000000000000 ) ) ;
#736 = AXIS2_PLACEMENT_3D ( 'NONE', #877, #274, #513 ) ;
#737 = FACE_OUTER_BOUND ( 'NONE', #126, .T. ) ;
#738 = CARTESIAN_POINT ( 'NONE',  ( 0.0000000000000000000, 0.0000000000000000000, 0.0000000000000000000 ) ) ;
#739 = PLANE ( 'NONE',  #346 ) ;
#740 = ORIENTED_EDGE ( 'NONE', *, *, #993, .F. ) ;
#741 = DIRECTION ( 'NONE',  ( -0.4999999999999991700, 0.8660254037844391500, 0.0000000000000000000 ) ) ;
#742 = ORIENTED_EDGE ( 'NONE', *, *, #185, .T. ) ;
#743 = VERTEX_POINT ( 'NONE', #397 ) ;
#744 = ORIENTED_EDGE ( 'NONE', *, *, #962, .F. ) ;
#745 = DIRECTION ( 'NONE',  ( -1.000000000000000000, 0.0000000000000000000, 0.0000000000000000000 ) ) ;
#746 = CARTESIAN_POINT ( 'NONE',  ( 0.0000000000000000000, 28.00000000000000400, 0.0000000000000000000 ) ) ;
#747 = CIRCLE ( 'NONE', #138, 23.00000000000000700 ) ;
#748 = FACE_OUTER_BOUND ( 'NONE', #640, .T. ) ;
#749 = FACE_OUTER_BOUND ( 'NONE', #915, .T. ) ;
#750 = DIRECTION ( 'NONE',  ( 1.000000000000000000, 0.0000000000000000000, 0.0000000000000000000 ) ) ;
#751 = DIRECTION ( 'NONE',  ( -0.0000000000000000000, 1.000000000000000000, -0.0000000000000000000 ) ) ;
#752 = ORIENTED_EDGE ( 'NONE', *, *, #254, .T. ) ;
#753 = DIRECTION ( 'NONE',  ( 0.8660254037844391500, 0.4999999999999991700, 0.0000000000000000000 ) ) ;
#754 = ORIENTED_EDGE ( 'NONE', *, *, #717, .T. ) ;
#755 = CARTESIAN_POINT ( 'NONE',  ( 0.0000000000000000000, 0.0000000000000000000, -12.00000000000000000 ) ) ;
#756 = DIRECTION ( 'NONE',  ( 0.0000000000000000000, 0.0000000000000000000, -1.000000000000000000 ) ) ;
#757 = VECTOR ( 'NONE', #42, 1000.000000000000000 ) ;
#758 = CIRCLE ( 'NONE', #577, 8.500000000000000000 ) ;
#759 = CARTESIAN_POINT ( 'NONE',  ( -11.00000000000000000, 1.347111479062088400E-015, -12.00000000000000000 ) ) ;
#760 = LINE ( 'NONE', #202, #285 ) ;
#761 = EDGE_CURVE ( 'NONE', #387, #567, #937, .T. ) ;
#762 = CARTESIAN_POINT ( 'NONE',  ( 8.216586365882179200, 35.50000000000000700, 7.000000000000000000 ) ) ;
#763 =( NAMED_UNIT ( * ) SI_UNIT ( $, .STERADIAN. ) SOLID_ANGLE_UNIT ( ) );
#764 = ORIENTED_EDGE ( 'NONE', *, *, #206, .F. ) ;
#765 = DIRECTION ( 'NONE',  ( 1.000000000000000000, 0.0000000000000000000, -0.0000000000000000000 ) ) ;
#766 = EDGE_LOOP ( 'NONE', ( #995, #950, #431, #334 ) ) ;
#767 = DIRECTION ( 'NONE',  ( 1.000000000000000000, 0.0000000000000000000, 0.0000000000000000000 ) ) ;
#768 = DIRECTION ( 'NONE',  ( 0.0000000000000000000, 0.0000000000000000000, -1.000000000000000000 ) ) ;
#769 = AXIS2_PLACEMENT_3D ( 'NONE', #980, #525, #519 ) ;
#770 = FACE_OUTER_BOUND ( 'NONE', #670, .T. ) ;
#771 = CARTESIAN_POINT ( 'NONE',  ( 0.0000000000000000000, 0.0000000000000000000, -5.000000000000000000 ) ) ;
#772 = LINE ( 'NONE', #630, #329 ) ;
#773 = CARTESIAN_POINT ( 'NONE',  ( -8.216586365882188000, 35.50000000000000700, 0.0000000000000000000 ) ) ;
#774 = ORIENTED_EDGE ( 'NONE', *, *, #24, .T. ) ;
#775 = EDGE_LOOP ( 'NONE', ( #311, #964 ) ) ;
#776 = UNCERTAINTY_MEASURE_WITH_UNIT (LENGTH_MEASURE( 1.000000000000000100E-005 ), #219, 'distance_accuracy_value', 'NONE');
#777 = PLANE ( 'NONE',  #33 ) ;
#778 = AXIS2_PLACEMENT_3D ( 'NONE', #83, #245, #929 ) ;
#779 = CARTESIAN_POINT ( 'NONE',  ( -8.216586365882180900, -21.81426403256089600, 0.0000000000000000000 ) ) ;
#780 = DIRECTION ( 'NONE',  ( 1.267541241555467500E-016, -1.000000000000000000, 0.0000000000000000000 ) ) ;
#781 = FACE_OUTER_BOUND ( 'NONE', #172, .T. ) ;
#782 = DIRECTION ( 'NONE',  ( -0.0000000000000000000, -0.0000000000000000000, 1.000000000000000000 ) ) ;
#783 = VERTEX_POINT ( 'NONE', #69 ) ;
#784 = CARTESIAN_POINT ( 'NONE',  ( 8.216586365882186300, -30.49999999999998900, 7.000000000000000000 ) ) ;
#785 = STYLED_ITEM ( 'NONE', ( #644 ), #372 ) ;
#786 = ORIENTED_EDGE ( 'NONE', *, *, #164, .F. ) ;
#787 = CARTESIAN_POINT ( 'NONE',  ( -8.216586365882180900, -21.81426403256089600, 7.000000000000000000 ) ) ;
#788 = ORIENTED_EDGE ( 'NONE', *, *, #761, .F. ) ;
#789 = DIRECTION ( 'NONE',  ( 0.8660254037844391500, 0.4999999999999991700, 0.0000000000000000000 ) ) ;
#790 = ORIENTED_EDGE ( 'NONE', *, *, #795, .F. ) ;
#791 = CARTESIAN_POINT ( 'NONE',  ( -11.49999999999999500, -19.91858428704209100, 7.000000000000000000 ) ) ;
#792 = EDGE_CURVE ( 'NONE', #1008, #569, #144, .T. ) ;
#793 = EDGE_LOOP ( 'NONE', ( #456, #354 ) ) ;
#794 = ORIENTED_EDGE ( 'NONE', *, *, #487, .F. ) ;
#795 = EDGE_CURVE ( 'NONE', #279, #905, #747, .T. ) ;
#796 = ORIENTED_EDGE ( 'NONE', *, *, #565, .T. ) ;
#797 = ORIENTED_EDGE ( 'NONE', *, *, #724, .T. ) ;
#798 = EDGE_LOOP ( 'NONE', ( #532, #468, #930, #200 ) ) ;
#799 = CARTESIAN_POINT ( 'NONE',  ( 8.216586365882179200, 35.50000000000000700, 0.0000000000000000000 ) ) ;
#800 = CYLINDRICAL_SURFACE ( 'NONE', #736, 23.00000000000000700 ) ;
#801 = LINE ( 'NONE', #434, #552 ) ;
#802 = VERTEX_POINT ( 'NONE', #71 ) ;
#803 = ADVANCED_FACE ( 'NONE', ( #281 ), #636, .F. ) ;
#804 = CARTESIAN_POINT ( 'NONE',  ( -8.216586365882188000, 30.50000000000000400, 7.000000000000000000 ) ) ;
#805 = CARTESIAN_POINT ( 'NONE',  ( -3.499999999999999600, 28.00000000000000400, 7.000000000000000000 ) ) ;
#806 = ORIENTED_EDGE ( 'NONE', *, *, #455, .T. ) ;
#807 = VECTOR ( 'NONE', #751, 1000.000000000000000 ) ;
#808 = EDGE_CURVE ( 'NONE', #510, #580, #946, .T. ) ;
#809 = ORIENTED_EDGE ( 'NONE', *, *, #734, .T. ) ;
#810 = DIRECTION ( 'NONE',  ( 0.0000000000000000000, 0.0000000000000000000, 1.000000000000000000 ) ) ;
#811 = PLANE ( 'NONE',  #428 ) ;
#812 = CARTESIAN_POINT ( 'NONE',  ( 8.500000000000000000, 1.040949779275250100E-015, -12.00000000000000000 ) ) ;
#813 = DIRECTION ( 'NONE',  ( 0.4999999999999992200, 0.8660254037844391500, -0.0000000000000000000 ) ) ;
#814 = EDGE_CURVE ( 'NONE', #293, #184, #539, .T. ) ;
#815 = VECTOR ( 'NONE', #107, 1000.000000000000000 ) ;
#816 = DIRECTION ( 'NONE',  ( 0.0000000000000000000, 0.0000000000000000000, -1.000000000000000000 ) ) ;
#817 = PRODUCT_DEFINITION ( 'NON CONOSCIUTO', '', #867, #921 ) ;
#818 = CIRCLE ( 'NONE', #145, 20.00000000000000000 ) ;
#819 = ORIENTED_EDGE ( 'NONE', *, *, #185, .F. ) ;
#820 = DIRECTION ( 'NONE',  ( -0.0000000000000000000, -0.0000000000000000000, 1.000000000000000000 ) ) ;
#821 = VERTEX_POINT ( 'NONE', #779 ) ;
#822 = DIRECTION ( 'NONE',  ( -1.000000000000000000, 0.0000000000000000000, 0.0000000000000000000 ) ) ;
#823 = EDGE_LOOP ( 'NONE', ( #696, #13 ) ) ;
#824 = ORIENTED_EDGE ( 'NONE', *, *, #761, .T. ) ;
#825 = EDGE_CURVE ( 'NONE', #154, #114, #327, .T. ) ;
#826 = VERTEX_POINT ( 'NONE', #784 ) ;
#827 = CARTESIAN_POINT ( 'NONE',  ( 0.0000000000000000000, 0.0000000000000000000, -12.00000000000000000 ) ) ;
#828 = CARTESIAN_POINT ( 'NONE',  ( -3.216586365882179200, -35.49999999999999300, 7.000000000000000000 ) ) ;
#829 = FILL_AREA_STYLE ('',( #959 ) ) ;
#830 = LINE ( 'NONE', #896, #571 ) ;
#831 = AXIS2_PLACEMENT_3D ( 'NONE', #166, #723, #423 ) ;
#832 = CARTESIAN_POINT ( 'NONE',  ( 0.0000000000000000000, 28.00000000000000400, 0.0000000000000000000 ) ) ;
#833 = DIRECTION ( 'NONE',  ( -3.802623724666399200E-016, 1.000000000000000000, -0.0000000000000000000 ) ) ;
#834 = DIRECTION ( 'NONE',  ( 0.0000000000000000000, 0.0000000000000000000, 1.000000000000000000 ) ) ;
#835 = DIRECTION ( 'NONE',  ( 1.000000000000000000, 0.0000000000000000000, 0.0000000000000000000 ) ) ;
#836 = CIRCLE ( 'NONE', #190, 3.499999999999999600 ) ;
#837 = CARTESIAN_POINT ( 'NONE',  ( 3.499999999999999600, -27.99999999999999600, 7.000000000000000000 ) ) ;
#838 = AXIS2_PLACEMENT_3D ( 'NONE', #474, #841, #697 ) ;
#839 = DIRECTION ( 'NONE',  ( -0.0000000000000000000, -0.0000000000000000000, 1.000000000000000000 ) ) ;
#840 = CARTESIAN_POINT ( 'NONE',  ( -19.35829318294109300, 19.35829318294109300, 7.000000000000000000 ) ) ;
#841 = DIRECTION ( 'NONE',  ( 0.0000000000000000000, 0.0000000000000000000, 1.000000000000000000 ) ) ;
#842 = VERTEX_POINT ( 'NONE', #243 ) ;
#843 = EDGE_CURVE ( 'NONE', #695, #154, #860, .T. ) ;
#844 = DIRECTION ( 'NONE',  ( 1.000000000000000000, 0.0000000000000000000, 0.0000000000000000000 ) ) ;
#845 = DIRECTION ( 'NONE',  ( -1.000000000000000000, -0.0000000000000000000, -0.0000000000000000000 ) ) ;
#846 = VERTEX_POINT ( 'NONE', #596 ) ;
#847 = DIRECTION ( 'NONE',  ( -1.000000000000000000, 0.0000000000000000000, 0.0000000000000000000 ) ) ;
#848 = VERTEX_POINT ( 'NONE', #578 ) ;
#849 = EDGE_CURVE ( 'NONE', #783, #279, #730, .T. ) ;
#850 = DIRECTION ( 'NONE',  ( 0.0000000000000000000, 0.0000000000000000000, 1.000000000000000000 ) ) ;
#851 = CIRCLE ( 'NONE', #548, 11.00000000000000000 ) ;
#852 = LINE ( 'NONE', #969, #987 ) ;
#853 = CARTESIAN_POINT ( 'NONE',  ( 8.216586365882186300, -21.81426403256089600, 0.0000000000000000000 ) ) ;
#854 = MECHANICAL_DESIGN_GEOMETRIC_PRESENTATION_REPRESENTATION (  '', ( #785 ), #491 ) ;
#855 = CARTESIAN_POINT ( 'NONE',  ( -3.216586365882179200, -35.49999999999999300, 7.000000000000000000 ) ) ;
#856 = EDGE_LOOP ( 'NONE', ( #744, #336, #63, #152 ) ) ;
#857 = CYLINDRICAL_SURFACE ( 'NONE', #1015, 11.00000000000000000 ) ;
#858 = DIRECTION ( 'NONE',  ( -0.5000000000000004400, -0.8660254037844383700, 0.0000000000000000000 ) ) ;
#859 = CARTESIAN_POINT ( 'NONE',  ( 3.216586365882180900, 35.50000000000000700, 0.0000000000000000000 ) ) ;
#860 = LINE ( 'NONE', #932, #602 ) ;
#861 = CARTESIAN_POINT ( 'NONE',  ( -8.216586365882188000, 35.50000000000000700, 0.0000000000000000000 ) ) ;
#862 = EDGE_CURVE ( 'NONE', #842, #430, #560, .T. ) ;
#863 = EDGE_LOOP ( 'NONE', ( #111, #438 ) ) ;
#864 = ORIENTED_EDGE ( 'NONE', *, *, #479, .F. ) ;
#865 = ADVANCED_FACE ( 'NONE', ( #116 ), #811, .F. ) ;
#866 = EDGE_CURVE ( 'NONE', #503, #848, #972, .T. ) ;
#867 = PRODUCT_DEFINITION_FORMATION_WITH_SPECIFIED_SOURCE ( 'TUTTO', '', #922, .NOT_KNOWN. ) ;
#868 = DIRECTION ( 'NONE',  ( 1.000000000000000000, 0.0000000000000000000, 0.0000000000000000000 ) ) ;
#869 = FACE_OUTER_BOUND ( 'NONE', #77, .T. ) ;
#870 = VERTEX_POINT ( 'NONE', #266 ) ;
#871 = AXIS2_PLACEMENT_3D ( 'NONE', #406, #639, #331 ) ;
#872 = VECTOR ( 'NONE', #632, 1000.000000000000100 ) ;
#873 = VECTOR ( 'NONE', #941, 1000.000000000000000 ) ;
#874 = ORIENTED_EDGE ( 'NONE', *, *, #244, .F. ) ;
#875 = FACE_OUTER_BOUND ( 'NONE', #417, .T. ) ;
#876 = ORIENTED_EDGE ( 'NONE', *, *, #684, .F. ) ;
#877 = CARTESIAN_POINT ( 'NONE',  ( 0.0000000000000000000, 0.0000000000000000000, 7.000000000000000000 ) ) ;
#878 = EDGE_CURVE ( 'NONE', #231, #846, #497, .T. ) ;
#879 = ADVANCED_FACE ( 'NONE', ( #54 ), #436, .F. ) ;
#880 = DIRECTION ( 'NONE',  ( 0.0000000000000000000, 0.0000000000000000000, 1.000000000000000000 ) ) ;
#881 = FACE_OUTER_BOUND ( 'NONE', #478, .T. ) ;
#882 = AXIS2_PLACEMENT_3D ( 'NONE', #1006, #536, #631 ) ;
#883 = FACE_OUTER_BOUND ( 'NONE', #856, .T. ) ;
#884 = EDGE_LOOP ( 'NONE', ( #943, #682 ) ) ;
#885 = CARTESIAN_POINT ( 'NONE',  ( 3.216586365882188000, -35.49999999999999300, 7.000000000000000000 ) ) ;
#886 = ORIENTED_EDGE ( 'NONE', *, *, #849, .T. ) ;
#887 = LINE ( 'NONE', #50, #807 ) ;
#888 = EDGE_CURVE ( 'NONE', #179, #484, #121, .T. ) ;
#889 = ORIENTED_EDGE ( 'NONE', *, *, #649, .T. ) ;
#890 = CARTESIAN_POINT ( 'NONE',  ( 11.49999999999998200, -19.91858428704209800, 7.000000000000000000 ) ) ;
#891 = CARTESIAN_POINT ( 'NONE',  ( 3.216586365882180900, 35.50000000000000700, 0.0000000000000000000 ) ) ;
#892 = DIRECTION ( 'NONE',  ( -1.000000000000000000, 0.0000000000000000000, 0.0000000000000000000 ) ) ;
#893 = ORIENTED_EDGE ( 'NONE', *, *, #270, .T. ) ;
#894 = EDGE_CURVE ( 'NONE', #523, #743, #300, .T. ) ;
#895 = LINE ( 'NONE', #982, #133 ) ;
#896 = CARTESIAN_POINT ( 'NONE',  ( 8.216586365882182700, 21.81426403256089600, 7.000000000000000000 ) ) ;
#897 = FACE_OUTER_BOUND ( 'NONE', #273, .T. ) ;
#898 = DIRECTION ( 'NONE',  ( -0.0000000000000000000, -0.0000000000000000000, -1.000000000000000000 ) ) ;
#899 = ORIENTED_EDGE ( 'NONE', *, *, #421, .F. ) ;
#900 = DIRECTION ( 'NONE',  ( -0.0000000000000000000, 0.0000000000000000000, -1.000000000000000000 ) ) ;
#901 =( NAMED_UNIT ( * ) PLANE_ANGLE_UNIT ( ) SI_UNIT ( $, .RADIAN. ) );
#902 = CARTESIAN_POINT ( 'NONE',  ( -11.49999999999999500, -19.91858428704209100, 0.0000000000000000000 ) ) ;
#903 = ORIENTED_EDGE ( 'NONE', *, *, #178, .F. ) ;
#904 = AXIS2_PLACEMENT_3D ( 'NONE', #738, #810, #357 ) ;
#905 = VERTEX_POINT ( 'NONE', #662 ) ;
#906 = DIRECTION ( 'NONE',  ( -0.0000000000000000000, -0.0000000000000000000, -1.000000000000000000 ) ) ;
#907 = DIRECTION ( 'NONE',  ( 0.0000000000000000000, -0.0000000000000000000, -1.000000000000000000 ) ) ;
#908 = DIRECTION ( 'NONE',  ( -0.0000000000000000000, -0.0000000000000000000, -1.000000000000000000 ) ) ;
#909 = CARTESIAN_POINT ( 'NONE',  ( -8.216586365882179200, -30.49999999999998900, 7.000000000000000000 ) ) ;
#910 = DIRECTION ( 'NONE',  ( -0.0000000000000000000, -0.0000000000000000000, -1.000000000000000000 ) ) ;
#911 = LINE ( 'NONE', #29, #195 ) ;
#912 = EDGE_CURVE ( 'NONE', #567, #557, #588, .T. ) ;
#913 = CARTESIAN_POINT ( 'NONE',  ( 0.0000000000000000000, 0.0000000000000000000, -12.00000000000000000 ) ) ;
#914 = SURFACE_STYLE_USAGE ( .BOTH. , #385 ) ;
#915 = EDGE_LOOP ( 'NONE', ( #824, #173, #340, #203 ) ) ;
#916 = CARTESIAN_POINT ( 'NONE',  ( -11.00000000000000000, 1.347111479062088400E-015, -12.00000000000000000 ) ) ;
#917 = ORIENTED_EDGE ( 'NONE', *, *, #612, .T. ) ;
#918 = LINE ( 'NONE', #840, #27 ) ;
#919 = EDGE_LOOP ( 'NONE', ( #598, #342, #774, #330 ) ) ;
#920 = ORIENTED_EDGE ( 'NONE', *, *, #38, .F. ) ;
#921 = PRODUCT_DEFINITION_CONTEXT ( 'detailed design', #531, 'design' ) ;
#922 = PRODUCT ( 'bearing 17 mm cuscinetto flangiato piatto', 'bearing 17 mm cuscinetto flangiato piatto', '', ( #207 ) ) ;
#923 = PRODUCT_RELATED_PRODUCT_CATEGORY ( 'part', '', ( #922 ) ) ;
#924 = UNCERTAINTY_MEASURE_WITH_UNIT (LENGTH_MEASURE( 1.000000000000000100E-005 ), #600, 'distance_accuracy_value', 'NONE');
#925 = CARTESIAN_POINT ( 'NONE',  ( 11.00000000000000000, 0.0000000000000000000, -12.00000000000000000 ) ) ;
#926 = CIRCLE ( 'NONE', #954, 3.499999999999999600 ) ;
#927 = FACE_BOUND ( 'NONE', #884, .T. ) ;
#928 = CARTESIAN_POINT ( 'NONE',  ( -8.216586365882179200, -30.49999999999998900, 0.0000000000000000000 ) ) ;
#929 = DIRECTION ( 'NONE',  ( -1.000000000000000000, 0.0000000000000000000, 0.0000000000000000000 ) ) ;
#930 = ORIENTED_EDGE ( 'NONE', *, *, #254, .F. ) ;
#931 = CARTESIAN_POINT ( 'NONE',  ( -11.49999999999999800, 19.91858428704209400, 7.000000000000000000 ) ) ;
#932 = CARTESIAN_POINT ( 'NONE',  ( 11.00000000000000000, 0.0000000000000000000, -12.00000000000000000 ) ) ;
#933 = ORIENTED_EDGE ( 'NONE', *, *, #164, .T. ) ;
#934 = EDGE_CURVE ( 'NONE', #473, #991, #533, .T. ) ;
#935 = DIRECTION ( 'NONE',  ( 1.000000000000000000, 1.267541241555467700E-016, -0.0000000000000000000 ) ) ;
#936 = LINE ( 'NONE', #1011, #103 ) ;
#937 = CIRCLE ( 'NONE', #341, 23.00000000000000000 ) ;
#938 = LINE ( 'NONE', #791, #872 ) ;
#939 = EDGE_CURVE ( 'NONE', #826, #581, #163, .T. ) ;
#940 = CYLINDRICAL_SURFACE ( 'NONE', #645, 20.00000000000000000 ) ;
#941 = DIRECTION ( 'NONE',  ( 1.267541241555467700E-016, -1.000000000000000000, 0.0000000000000000000 ) ) ;
#942 = ORIENTED_EDGE ( 'NONE', *, *, #322, .T. ) ;
#943 = ORIENTED_EDGE ( 'NONE', *, *, #6, .F. ) ;
#944 = ORIENTED_EDGE ( 'NONE', *, *, #472, .F. ) ;
#945 = EDGE_CURVE ( 'NONE', #581, #545, #74, .T. ) ;
#946 = LINE ( 'NONE', #855, #316 ) ;
#947 = ADVANCED_FACE ( 'NONE', ( #875 ), #857, .T. ) ;
#948 = DIRECTION ( 'NONE',  ( -1.000000000000000000, 0.0000000000000000000, -0.0000000000000000000 ) ) ;
#949 = LINE ( 'NONE', #469, #543 ) ;
#950 = ORIENTED_EDGE ( 'NONE', *, *, #137, .T. ) ;
#951 = VERTEX_POINT ( 'NONE', #902 ) ;
#952 = VERTEX_POINT ( 'NONE', #837 ) ;
#953 = EDGE_LOOP ( 'NONE', ( #981, #629 ) ) ;
#954 = AXIS2_PLACEMENT_3D ( 'NONE', #832, #53, #835 ) ;
#955 = VECTOR ( 'NONE', #125, 1000.000000000000000 ) ;
#956 = LINE ( 'NONE', #698, #148 ) ;
#957 = FACE_OUTER_BOUND ( 'NONE', #798, .T. ) ;
#958 = DIRECTION ( 'NONE',  ( 1.000000000000000000, 0.0000000000000000000, 0.0000000000000000000 ) ) ;
#959 = FILL_AREA_STYLE_COLOUR ( '', #452 ) ;
#960 = CIRCLE ( 'NONE', #364, 23.00000000000000000 ) ;
#961 = ADVANCED_FACE ( 'NONE', ( #869 ), #2, .F. ) ;
#962 = EDGE_CURVE ( 'NONE', #267, #473, #918, .T. ) ;
#963 = DIRECTION ( 'NONE',  ( -1.000000000000000000, 0.0000000000000000000, 0.0000000000000000000 ) ) ;
#964 = ORIENTED_EDGE ( 'NONE', *, *, #504, .T. ) ;
#965 = ORIENTED_EDGE ( 'NONE', *, *, #849, .F. ) ;
#966 = CARTESIAN_POINT ( 'NONE',  ( 0.0000000000000000000, 0.0000000000000000000, -5.000000000000000000 ) ) ;
#967 = CARTESIAN_POINT ( 'NONE',  ( 0.0000000000000000000, 0.0000000000000000000, 7.000000000000000000 ) ) ;
#968 = EDGE_CURVE ( 'NONE', #616, #783, #994, .T. ) ;
#969 = CARTESIAN_POINT ( 'NONE',  ( -8.216586365882179200, -35.49999999999999300, 0.0000000000000000000 ) ) ;
#970 = AXIS2_PLACEMENT_3D ( 'NONE', #771, #315, #393 ) ;
#971 = DIRECTION ( 'NONE',  ( -0.0000000000000000000, -0.0000000000000000000, -1.000000000000000000 ) ) ;
#972 = LINE ( 'NONE', #668, #414 ) ;
#973 = ORIENTED_EDGE ( 'NONE', *, *, #259, .T. ) ;
#974 = CARTESIAN_POINT ( 'NONE',  ( 3.216586365882180900, 35.50000000000000700, 7.000000000000000000 ) ) ;
#975 = CARTESIAN_POINT ( 'NONE',  ( 3.499999999999999600, 28.00000000000000400, 7.000000000000000000 ) ) ;
#976 = AXIS2_PLACEMENT_3D ( 'NONE', #72, #707, #1005 ) ;
#977 = ORIENTED_EDGE ( 'NONE', *, *, #496, .F. ) ;
#978 = DIRECTION ( 'NONE',  ( -0.0000000000000000000, -0.0000000000000000000, -1.000000000000000000 ) ) ;
#979 = ORIENTED_EDGE ( 'NONE', *, *, #196, .T. ) ;
#980 = CARTESIAN_POINT ( 'NONE',  ( 0.0000000000000000000, 0.0000000000000000000, 0.0000000000000000000 ) ) ;
#981 = ORIENTED_EDGE ( 'NONE', *, *, #30, .F. ) ;
#982 = CARTESIAN_POINT ( 'NONE',  ( -3.216586365882188000, 35.50000000000000700, 7.000000000000000000 ) ) ;
#983 = DIRECTION ( 'NONE',  ( -0.7071067811865474600, -0.7071067811865474600, 0.0000000000000000000 ) ) ;
#984 = EDGE_CURVE ( 'NONE', #564, #821, #395, .T. ) ;
#985 = CARTESIAN_POINT ( 'NONE',  ( 11.49999999999998800, 19.91858428704209100, 0.0000000000000000000 ) ) ;
#986 = DIRECTION ( 'NONE',  ( -0.0000000000000000000, -0.0000000000000000000, -1.000000000000000000 ) ) ;
#987 = VECTOR ( 'NONE', #28, 1000.000000000000000 ) ;
#988 = DIRECTION ( 'NONE',  ( -0.8660254037844383700, 0.5000000000000004400, 0.0000000000000000000 ) ) ;
#989 = CIRCLE ( 'NONE', #831, 3.499999999999999600 ) ;
#990 = CARTESIAN_POINT ( 'NONE',  ( 0.0000000000000000000, 28.00000000000000400, 7.000000000000000000 ) ) ;
#991 = VERTEX_POINT ( 'NONE', #122 ) ;
#992 = DIRECTION ( 'NONE',  ( 1.000000000000000000, 0.0000000000000000000, 0.0000000000000000000 ) ) ;
#993 = EDGE_CURVE ( 'NONE', #142, #153, #887, .T. ) ;
#994 = LINE ( 'NONE', #44, #14 ) ;
#995 = ORIENTED_EDGE ( 'NONE', *, *, #939, .F. ) ;
#996 = AXIS2_PLACEMENT_3D ( 'NONE', #593, #119, #383 ) ;
#997 = CARTESIAN_POINT ( 'NONE',  ( -8.216586365882180900, -21.81426403256089600, 7.000000000000000000 ) ) ;
#998 = SURFACE_STYLE_USAGE ( .BOTH. , #370 ) ;
#999 =( NAMED_UNIT ( * ) PLANE_ANGLE_UNIT ( ) SI_UNIT ( $, .RADIAN. ) );
#1000 = CARTESIAN_POINT ( 'NONE',  ( 8.500000000000000000, 1.040949779275250100E-015, 7.000000000000000000 ) ) ;
#1001 = CARTESIAN_POINT ( 'NONE',  ( 8.216586365882180900, 30.50000000000000700, 7.000000000000000000 ) ) ;
#1002 = VECTOR ( 'NONE', #594, 1000.000000000000000 ) ;
#1003 = EDGE_CURVE ( 'NONE', #255, #61, #836, .T. ) ;
#1004 = DIRECTION ( 'NONE',  ( 0.0000000000000000000, 0.0000000000000000000, 1.000000000000000000 ) ) ;
#1005 = DIRECTION ( 'NONE',  ( -1.000000000000000000, 0.0000000000000000000, 0.0000000000000000000 ) ) ;
#1006 = CARTESIAN_POINT ( 'NONE',  ( 0.0000000000000000000, 0.0000000000000000000, 0.0000000000000000000 ) ) ;
#1007 = EDGE_LOOP ( 'NONE', ( #681, #256, #216, #671 ) ) ;
#1008 = VERTEX_POINT ( 'NONE', #371 ) ;
#1009 = ORIENTED_EDGE ( 'NONE', *, *, #526, .F. ) ;
#1010 = CARTESIAN_POINT ( 'NONE',  ( -3.499999999999999600, -27.99999999999999600, 0.0000000000000000000 ) ) ;
#1011 = CARTESIAN_POINT ( 'NONE',  ( 19.35829318294109700, 19.35829318294110000, 7.000000000000000000 ) ) ;
#1012 = LINE ( 'NONE', #282, #176 ) ;
#1013 = PLANE ( 'NONE',  #871 ) ;
#1014 = CIRCLE ( 'NONE', #234, 3.499999999999999600 ) ;
#1015 = AXIS2_PLACEMENT_3D ( 'NONE', #827, #215, #381 ) ;
#1016 = ORIENTED_EDGE ( 'NONE', *, *, #433, .F. ) ;
#1017 = DIRECTION ( 'NONE',  ( 1.000000000000000000, 0.0000000000000000000, 0.0000000000000000000 ) ) ;
#1018 = CARTESIAN_POINT ( 'NONE',  ( 8.216586365882180900, 30.50000000000000700, 0.0000000000000000000 ) ) ;
#1019 = PRESENTATION_STYLE_ASSIGNMENT (( #914 ) ) ;
ENDSEC;
END-ISO-10303-21;
